<svg width="67" height="67" xmlns="http://www.w3.org/2000/svg">
 <g>
  <title>CreativeCloud</title>
  <rect id="svg_23" height="67" width="67" fill="#ED2F31"/>
  <g id="W0qAS3_1_">
   <g id="svg_24">
    <g id="svg_25">
     <path id="svg_26" d="m32.299,51.318c-3.281,0 -6.593,0.284 -9.838,-0.059c-7.925,-0.834 -13.492,-7.852 -13.022,-16.034c0.437,-7.622 7.035,-13.907 14.774,-13.838c1.952,0.016 3.343,-0.502 4.858,-1.717c5.888,-4.723 14.176,-4.925 20.575,-0.72c6.192,4.069 9.174,11.882 7.32,19.189c-1.874,7.392 -8.08,12.685 -15.774,13.233c-2.95,0.212 -5.925,0.035 -8.89,0.035c-0.001,-0.029 -0.003,-0.059 -0.003,-0.089zm-1.597,-28.732c0.534,0.313 0.933,0.465 1.228,0.734c1.083,0.988 2.052,0.854 3.375,0.236c7.635,-3.556 16.456,2.736 15.614,11.06c-0.474,4.655 -2.887,7.955 -7.247,9.578c-4.43,1.652 -8.441,0.658 -11.839,-2.629c-2.129,-2.062 -4.19,-4.194 -6.292,-6.286c-0.954,-0.949 -1.951,-1.087 -2.611,-0.338c-0.861,0.981 -0.44,1.815 0.362,2.611c2.235,2.216 4.41,4.491 6.685,6.667c2.836,2.706 6.291,4.07 10.191,3.904c8.52,-0.362 14.599,-7.179 13.877,-15.691c-0.474,-5.587 -3.451,-9.682 -8.619,-11.88c-5.155,-2.19 -10.055,-1.42 -14.724,2.034zm-1.765,25.5c-0.719,-0.791 -1.391,-1.468 -1.992,-2.204c-0.631,-0.772 -1.384,-0.998 -2.382,-1.005c-4.109,-0.03 -7.403,-2.582 -8.363,-6.366c-0.941,-3.707 0.721,-7.653 4.005,-9.508c3.489,-1.972 7.542,-1.341 10.508,1.64c1.35,1.355 2.711,2.704 4.047,4.076c0.785,0.807 1.62,1.252 2.609,0.403c0.777,-0.665 0.645,-1.632 -0.323,-2.617c-1.498,-1.529 -3.001,-3.057 -4.538,-4.549c-4.767,-4.631 -12.407,-4.294 -16.848,0.719c-4.352,4.917 -3.708,12.555 1.326,16.745c3.55,2.953 7.703,2.826 11.951,2.666z" fill="#FFFFFF"/>
    </g>
   </g>
  </g>
 </g>
</svg>