<svg width="67" height="67" xmlns="http://www.w3.org/2000/svg">
 <title>WordPress</title>
 <g>
  <title>Layer 1</title>
  <rect id="svg_151" height="67" width="67" fill="#454545"/>
  <path id="svg_152" d="m57.225,33.5c0,13.578 -10.849,24.592 -24.225,24.592c-13.377,0 -24.224,-11.014 -24.224,-24.592c0,-13.579 10.847,-24.591 24.224,-24.591c13.376,0 24.225,11.012 24.225,24.591z" fill="#FFFFFF"/>
  <ellipse id="svg_153" ry="23.129" rx="22.784" cy="33.5" cx="33" fill="#454545"/>
  <path id="svg_154" d="m12.169,33.5c0,-3.128 0.67,-6.098 1.872,-8.771l10.045,27.886c-7.043,-3.391 -11.917,-10.676 -11.917,-19.115z" fill="#FFFFFF"/>
  <path id="svg_155" d="m33.042,54.646c-2.107,0 -4.141,-0.319 -6.058,-0.91l6.416,-18.668l6.614,18.361c-2.179,0.788 -4.525,1.217 -6.972,1.217z" fill="#FFFFFF"/>
  <path id="svg_156" d="m53.83,33.5c0,7.998 -4.377,14.96 -10.834,18.553l6.498,-18.679c1.007,-2.891 1.941,-6.797 1.826,-9.943c1.601,2.994 2.51,6.423 2.51,10.069z" fill="#FFFFFF"/>
  <path id="svg_157" d="m47.091,17.929c-3.709,-3.46 -8.657,-5.574 -14.091,-5.574c-7.326,0 -13.77,3.841 -17.482,9.649c2.366,-0.023 4.906,-0.051 7.437,-0.188c0.109,-0.006 0.199,0.095 0.199,0.211v1.266c0,0.116 -0.089,0.21 -0.199,0.21h-2.411c-0.271,0 -0.384,0.166 -0.289,0.448l7.564,22.622l4.604,-14.107l-3.06,-8.495c-0.111,-0.308 -0.243,-0.468 -0.714,-0.468h-2.116c-0.109,0 -0.199,-0.095 -0.199,-0.211v-1.265c0,-0.116 0.09,-0.216 0.199,-0.211c3.939,0.179 7.902,0.177 11.89,0c0.109,-0.005 0.199,0.095 0.199,0.211v1.265c0,0.116 -0.09,0.211 -0.199,0.211h-2.105c-0.417,0 -0.553,0.197 -0.436,0.541l7.447,22.268l2.734,-8.449c3.306,-10.213 -2.829,-11.295 -2.678,-16.373c0.074,-2.513 1.887,-3.61 3.706,-3.561l0,0z" fill="#FFFFFF"/>
 </g>
</svg>