<?xml version="1.0" encoding="utf-8"?>
<!-- Generator: Adobe Illustrator 16.0.4, SVG Export Plug-In . SVG Version: 6.00 Build 0)  -->
<!DOCTYPE svg PUBLIC "-//W3C//DTD SVG 1.1//EN" "http://www.w3.org/Graphics/SVG/1.1/DTD/svg11.dtd">
<svg version="1.1" id="Layer_1" xmlns="http://www.w3.org/2000/svg" xmlns:xlink="http://www.w3.org/1999/xlink" x="0px" y="0px"
	 width="67px" height="67px" viewBox="0 0 67 67" enable-background="new 0 0 67 67" xml:space="preserve">
<rect x="0.042" y="0.005" fill="#9AC211" width="66.991" height="66.991"/>
<path fill="#9AC211" d="M66.515,5.636"/>
<path fill="#FFFFFF" d="M56.44,28.122c-0.522,0-1.054-0.128-1.546-0.399c-11.432-6.292-26.001-7.984-41.022-4.766
	c-0.996,0.213-1.597,0.343-2.467,0.053c-1.684-0.562-2.595-2.383-2.033-4.066c0.414-1.241,1.511-2.062,2.735-2.183
	c0.104-0.021,0.244-0.053,0.418-0.089c16.532-3.543,32.68-1.618,45.47,5.42c1.555,0.856,2.122,2.812,1.266,4.367
	C58.676,27.52,57.575,28.122,56.44,28.122z"/>
<path fill="#FFFFFF" d="M51.745,39.004c-0.447,0-0.9-0.11-1.319-0.342c-18.928-10.504-34.73-4.369-34.888-4.307
	c-1.396,0.56-2.979-0.117-3.539-1.511c-0.56-1.394,0.117-2.977,1.511-3.537c0.739-0.298,18.387-7.15,39.555,4.597
	c1.314,0.729,1.787,2.386,1.06,3.697C53.628,38.5,52.7,39.004,51.745,39.004z"/>
<path fill="#FFFFFF" d="M48.035,48.896c-0.509,0-1.019-0.156-1.46-0.478c-12.174-8.905-30.167-3.64-30.346-3.586
	c-1.308,0.393-2.688-0.347-3.082-1.653c-0.394-1.306,0.344-2.686,1.649-3.081c0.832-0.252,20.512-6.051,34.7,4.328
	c1.103,0.805,1.344,2.352,0.535,3.453C49.547,48.545,48.797,48.896,48.035,48.896z"/>
</svg>
