<svg width="67" height="67" xmlns="http://www.w3.org/2000/svg">
 <g>
  <title>Android</title>
  <rect id="svg_8" height="67" width="67" fill="#81B335"/>
  <path id="svg_9" d="m36.604,49.468v7.012c0,0 0.035,2.451 2.794,2.451c2.763,0 2.885,-2.417 2.885,-2.417v-7.043c0,0 0.432,0 2.638,0c2.199,0 2.265,-2.138 2.265,-2.138v-24.501h-26.209v24.501c0,0 0.061,2.138 2.265,2.138c2.203,0 2.636,0 2.636,0v7.043c0,0 0.125,2.417 2.884,2.417c2.759,0 2.791,-2.451 2.791,-2.451v-7.012h5.051l0,0z" fill="#FFFFFF"/>
  <path id="svg_10" d="m49.142,41.251c0,0 0.062,2.235 2.77,2.235c2.711,0 2.668,-2.235 2.668,-2.235v-17.366c0,0 0.043,-2.233 -2.668,-2.233c-2.707,0 -2.77,2.233 -2.77,2.233v17.366l0,0z" fill="#FFFFFF"/>
  <path id="svg_11" d="m13.336,41.251c0,0 0.062,2.235 2.77,2.235c2.709,0 2.668,-2.235 2.668,-2.235v-17.366c0,0 0.042,-2.233 -2.668,-2.233c-2.708,0 -2.77,2.233 -2.77,2.233v17.366l0,0z" fill="#FFFFFF"/>
  <path id="svg_12" d="m21.039,21.101c0,0 0.187,-5.335 5.397,-8.994l-1.55,-3.164l0.559,-0.31l1.674,3.039c0,0 7.133,-3.535 13.958,0l1.673,-3.102l0.525,0.249l-1.671,3.226c0,0 5.582,3.039 5.582,9.056l-26.147,0l0,0zm8.848,-6.382c-1.042,0 -1.89,0.843 -1.89,1.887s0.847,1.887 1.89,1.887c1.042,0 1.888,-0.843 1.888,-1.887s-0.845,-1.887 -1.888,-1.887zm8.849,0c-1.037,0 -1.889,0.843 -1.889,1.887s0.85,1.887 1.889,1.887c1.044,0 1.893,-0.843 1.893,-1.887s-0.849,-1.887 -1.893,-1.887z" fill="#FFFFFF"/>
 </g>
</svg>