<svg width="67" height="67" xmlns="http://www.w3.org/2000/svg">
 <g>
  <title>Mercurial</title>
  <rect id="svg_70" height="66.991" width="66.991" fill="#222222" y="0.005" x="0.005"/>
  <path id="svg_71" d="m30.423,16.69c0,0 -11.123,6.823 -3.546,14.283c7.578,7.46 13.702,5.236 12.088,10.316c-1.61,5.077 -6.123,7.776 -1.772,10.315c4.354,2.539 13.539,0.156 17.249,-12.856c3.708,-13.013 -10.316,-29.042 -24.019,-22.058z" fill="#FFFFFF"/>
  <path id="svg_72" d="m21.396,36.049c0,0 -4.352,0.954 -5.803,-2.537c-1.451,-3.493 2.095,-6.031 5.158,-4.286c3.064,1.745 3.225,6.665 0.645,6.823z" fill="#FFFFFF"/>
  <path id="svg_73" d="m22.847,41.762c0,0 -4.031,4.92 0.644,8.097c4.676,3.173 8.866,0.318 9.188,-2.858c0.324,-3.173 0.483,-5.397 -2.9,-7.141c-3.386,-1.746 -6.124,0.475 -6.932,1.902z" fill="#FFFFFF"/>
 </g>
</svg>