<svg width="67" height="67" xmlns="http://www.w3.org/2000/svg">
 <g>
  <title>GitHub</title>
  <rect id="svg_45" height="66.991" width="66.991" fill="#E3E3E3" x="0.003"/>
  <g id="svg_46">
   <path id="svg_47" d="m38.607,41.901c0,0 2.587,8.617 10.17,6.895c7.587,-1.725 8.103,-11.379 3.622,-16.375c-4.483,-5 -16.031,2.928 -13.792,9.48z" fill="none"/>
   <path id="svg_48" d="m11.597,22.1c0,0 -5.693,5.956 -4.704,15.647c0.989,9.693 7.126,17.691 27.593,17.691c20.464,0 25.612,-10.683 25.732,-19.469c0.121,-8.782 -3.835,-12.699 -5.692,-14.032c0,0 0.012,-6.306 -0.584,-9.637c0,0 -3.149,-0.373 -9.95,3.523c0,0 -9.285,-0.907 -21.658,0.11c0,0 -5.197,-3.473 -10.434,-4.382c-0.001,0.002 -0.869,5.47 -0.303,10.549z"/>
   <path id="svg_49" d="m20.761,31.693h25.392c0,0 7.196,-0.809 7.196,10.964c0.058,10.36 -18.963,9.691 -18.963,9.691s-20.83,0.827 -20.842,-10.672c-0.027,-10.384 7.217,-9.983 7.217,-9.983z" fill="#E2B89F"/>
   <g id="svg_50">
    <g id="svg_51">
     <path id="svg_52" d="m43.838,36.419c1.632,0 2.957,2.129 2.957,4.745c0,2.622 -1.325,4.746 -2.957,4.746c-1.631,0 -2.956,-2.124 -2.956,-4.746c-0.001,-2.616 1.325,-4.745 2.956,-4.745z" fill="#9C584F"/>
     <path id="svg_53" d="m43.838,46.762c-2.135,0 -3.807,-2.458 -3.807,-5.598c0,-3.138 1.672,-5.596 3.807,-5.596c2.137,0 3.808,2.458 3.808,5.596c0,3.14 -1.673,5.598 -3.808,5.598zm0,-9.491c-0.996,0 -2.104,1.599 -2.104,3.894c0,2.297 1.108,3.896 2.104,3.896c0.995,0 2.105,-1.599 2.105,-3.896c0,-2.296 -1.11,-3.894 -2.105,-3.894z" fill="#FFFFFF"/>
    </g>
   </g>
   <g id="svg_54">
    <g id="svg_55">
     <path id="svg_56" d="m23.409,36.419c1.633,0 2.957,2.129 2.957,4.745c0,2.622 -1.324,4.746 -2.957,4.746c-1.631,0 -2.955,-2.124 -2.955,-4.746c-0.002,-2.616 1.324,-4.745 2.955,-4.745z" fill="#9C584F"/>
     <path id="svg_57" d="m23.409,46.762c-2.135,0 -3.807,-2.458 -3.807,-5.598c0,-3.138 1.672,-5.596 3.807,-5.596s3.808,2.458 3.808,5.596c0,3.14 -1.673,5.598 -3.808,5.598zm0,-9.491c-0.996,0 -2.104,1.599 -2.104,3.894c0,2.297 1.108,3.896 2.104,3.896s2.106,-1.599 2.106,-3.896c0.001,-2.296 -1.11,-3.894 -2.106,-3.894z" fill="#FFFFFF"/>
    </g>
   </g>
   <path id="svg_58" d="m32.447,46.828c0,0 0.85,-2.414 1.888,-0.152c0,0 -0.778,0.507 -0.485,1.696l2.432,0.93h-5.499l2.179,-0.979c-0.001,-0.001 0.312,-1.799 -0.515,-1.495z" fill="#9C584F"/>
  </g>
 </g>
</svg>