<svg width="67" height="67" xmlns="http://www.w3.org/2000/svg">
 <g>
  <title>YouTube</title>
  <rect id="svg_139" height="67" width="67" fill="#CF3427"/>
  <g id="svg_140">
   <path id="svg_141" d="m33.992,32.514c0,-0.001 15.765,0.023 17.636,1.892c1.878,1.874 1.898,11.11 1.898,11.164c0,0 -0.015,9.288 -1.898,11.167c-1.871,1.865 -17.636,1.906 -17.636,1.906s-15.764,-0.041 -17.639,-1.908c-1.877,-1.872 -1.881,-11.095 -1.881,-11.165c0,-0.054 0.006,-9.293 1.881,-11.165c1.877,-1.868 17.639,-1.892 17.639,-1.891z" fill="#FFFFFF"/>
   <path id="svg_142" d="m45.416,47.757v2.182c0,0.61 0.074,1.033 0.222,1.271c0.154,0.234 0.408,0.351 0.772,0.351c0.377,0 0.642,-0.1 0.791,-0.3c0.149,-0.198 0.229,-0.637 0.229,-1.321v-0.528h2.343v0.595c0,1.189 -0.283,2.084 -0.856,2.688c-0.568,0.6 -1.423,0.896 -2.557,0.896c-1.02,0 -1.824,-0.316 -2.41,-0.955c-0.585,-0.633 -0.882,-1.509 -0.882,-2.628v-5.202c0,-1.002 0.325,-1.823 0.968,-2.454c0.645,-0.634 1.473,-0.949 2.495,-0.949c1.042,0 1.843,0.294 2.403,0.879s0.839,1.426 0.839,2.524v2.956h-4.356v-0.005l-0.001,0z" fill="#CF3427"/>
   <path id="svg_143" d="m31.335,53.271v-1.272c-0.425,0.472 -0.858,0.829 -1.316,1.072c-0.456,0.249 -0.896,0.367 -1.323,0.367c-0.529,0 -0.92,-0.168 -1.191,-0.516c-0.263,-0.348 -0.398,-0.859 -0.398,-1.553v-9.686h2.275v8.887c0,0.275 0.049,0.472 0.141,0.597c0.1,0.123 0.256,0.184 0.467,0.184c0.168,0 0.381,-0.082 0.637,-0.245c0.258,-0.163 0.49,-0.369 0.707,-0.62v-8.802h2.277v11.586l-2.276,0.001l0,0z" fill="#CF3427"/>
   <path id="svg_144" d="m41.338,52.764c-0.354,0.438 -0.873,0.654 -1.55,0.654c-0.447,0 -0.842,-0.082 -1.19,-0.25c-0.348,-0.17 -0.676,-0.429 -0.974,-0.785v0.888h-2.301v-15.703h2.301v5.058c0.312,-0.353 0.635,-0.623 0.977,-0.806c0.35,-0.185 0.698,-0.275 1.052,-0.275c0.723,0 1.272,0.247 1.65,0.738c0.385,0.494 0.572,1.217 0.572,2.166v6.429c0,0.819 -0.18,1.447 -0.537,1.886z" fill="#CF3427"/>
   <polygon id="svg_145" points="23.45,39.85 23.45,53.271 20.883,53.271 20.883,39.85 18.228,39.85 18.228,37.568 26.105,37.568    26.105,39.85  " fill="#CF3427"/>
   <path id="svg_146" d="m30.617,15.451c0.689,-0.586 1.619,-0.88 2.783,-0.88c1.059,0 1.93,0.31 2.61,0.928c0.676,0.618 1.015,1.413 1.015,2.386v6.592c0,1.091 -0.334,1.945 -0.994,2.568c-0.67,0.621 -1.583,0.932 -2.749,0.932c-1.12,0 -2.019,-0.321 -2.693,-0.961c-0.669,-0.643 -1.008,-1.505 -1.008,-2.589v-6.614c-0.001,-0.991 0.343,-1.778 1.036,-2.362z" fill="#FFFFFF"/>
   <path id="svg_147" d="m46.434,43.426c-0.363,0 -0.625,0.103 -0.784,0.318c-0.157,0.204 -0.234,0.554 -0.234,1.039v1.169h2.014v-1.169c0,-0.485 -0.08,-0.835 -0.241,-1.039c-0.154,-0.216 -0.411,-0.318 -0.755,-0.318z" fill="#FFFFFF"/>
   <path id="svg_148" d="m46.423,27.655h-2.563v-1.409c-0.47,0.518 -0.961,0.917 -1.477,1.186c-0.511,0.271 -1.007,0.408 -1.487,0.408c-0.598,0 -1.041,-0.191 -1.341,-0.57c-0.299,-0.381 -0.449,-0.949 -0.449,-1.711v-10.665h2.561v9.784c0,0.301 0.059,0.521 0.165,0.654c0.104,0.137 0.282,0.203 0.521,0.203c0.187,0 0.426,-0.09 0.715,-0.269c0.287,-0.179 0.552,-0.407 0.789,-0.688v-9.686h2.566v12.763l0,0z" fill="#FFFFFF"/>
   <polygon id="svg_149" points="22.598,10.357 19.688,10.357 23.125,20.801 23.125,27.655 26.014,27.655 26.014,20.478    29.373,10.357 26.437,10.357 24.653,17.271 24.473,17.271  " fill="#FFFFFF"/>
   <path id="svg_150" d="m32.496,25.479c0.181,0.192 0.441,0.286 0.781,0.286c0.348,0 0.622,-0.098 0.828,-0.291c0.205,-0.198 0.308,-0.467 0.308,-0.807v-6.951c0,-0.279 -0.104,-0.506 -0.315,-0.678c-0.209,-0.171 -0.482,-0.256 -0.82,-0.256c-0.313,0 -0.566,0.085 -0.764,0.256c-0.193,0.172 -0.293,0.398 -0.293,0.678v6.951c0,0.35 0.093,0.618 0.275,0.812z" fill="#CF3427"/>
   <path id="svg_151" d="m38.579,43.385c0.306,0 0.544,0.1 0.71,0.301c0.16,0.202 0.242,0.5 0.242,0.89v5.982c0,0.373 -0.069,0.636 -0.2,0.798c-0.132,0.166 -0.334,0.247 -0.613,0.247c-0.193,0 -0.375,-0.043 -0.551,-0.126c-0.176,-0.08 -0.356,-0.223 -0.54,-0.409v-7.217c0.155,-0.159 0.311,-0.278 0.469,-0.354c0.158,-0.077 0.318,-0.112 0.483,-0.112z" fill="#FFFFFF"/>
  </g>
 </g>
</svg>