<?xml version="1.0" standalone="no"?>
<!DOCTYPE svg PUBLIC "-//W3C//DTD SVG 1.1//EN" "http://www.w3.org/Graphics/SVG/1.1/DTD/svg11.dtd" >
<svg xmlns="http://www.w3.org/2000/svg">
<metadata></metadata>
<defs>
<font id="theinhardtregular" horiz-adv-x="1208" >
<font-face units-per-em="2048" ascent="1642" descent="-406" />
<missing-glyph horiz-adv-x="409" />
<glyph unicode="&#xfb01;" horiz-adv-x="1085" d="M37 846v129h199v196q0 119 59.5 177.5t187.5 58.5q69 0 129 -12v-138q-56 7 -80 7q-81 0 -106 -37q-20 -31 -20 -101v-151h206v-129h-206v-846h-170v846h-199zM784 0v975h170v-975h-170zM784 1176v217h170v-217h-170z" />
<glyph unicode="&#xfb02;" horiz-adv-x="1099" d="M37 846v129h199v196q0 119 59.5 177.5t187.5 58.5q69 0 129 -12v-138q-56 7 -80 7q-81 0 -106 -37q-20 -31 -20 -101v-151h206v-129h-206v-846h-170v846h-199zM784 0v1393h170v-1393h-170z" />
<glyph horiz-adv-x="0" />
<glyph horiz-adv-x="682" />
<glyph unicode=" "  horiz-adv-x="409" />
<glyph unicode="&#x09;" horiz-adv-x="409" />
<glyph unicode="&#xa0;" horiz-adv-x="409" />
<glyph unicode="!" horiz-adv-x="464" d="M141 0v256h183v-256h-183zM147 698v695h170v-695l-24 -344h-119z" />
<glyph unicode="&#x22;" horiz-adv-x="673" d="M106 1243v150h177v-150l-43 -424h-95zM391 1243v150h176v-150l-43 -424h-94z" />
<glyph unicode="#" horiz-adv-x="1337" d="M74 362v154h301l51 305h-309l-2 156h334l67 414h156l-68 -414h205l68 414h155l-67 -414h297v-156h-320l-51 -305h330v-154h-355l-57 -362h-156l58 362h-205l-57 -362h-156l57 362h-276zM530 516h205l51 305h-204z" />
<glyph unicode="$" horiz-adv-x="1185" d="M57 272l146 103q42 -79 124.5 -137.5t194.5 -77.5v489l-35 10q-49 12 -84 23t-76.5 27.5t-70 35t-57 45t-46 58t-28 74t-10.5 92.5q0 109 55.5 193t146 130t205.5 56v200h158v-204q255 -35 397 -220l-131 -108q-102 140 -266 170v-447l39 -8q74 -19 128 -38t107.5 -50 t87 -69.5t54 -94.5t20.5 -127q0 -169 -120.5 -273.5t-315.5 -123.5v-188h-158v188q-159 17 -278.5 89.5t-186.5 182.5zM293 1030q0 -87 51.5 -131t177.5 -76v414q-104 -11 -166.5 -65.5t-62.5 -141.5zM680 158q115 13 184.5 71.5t69.5 157.5q0 89 -62.5 138.5t-191.5 84.5 v-452z" />
<glyph unicode="%" horiz-adv-x="1826" d="M63 948q0 88 16.5 165.5t52 146t101.5 109t156 40.5q75 0 133 -28.5t93 -73.5t57.5 -107.5t30.5 -123.5t8 -128q0 -115 -33.5 -210t-109 -157.5t-183.5 -62.5q-84 0 -148 36.5t-101 98.5t-55 136.5t-18 158.5zM217 963q0 -87 15.5 -156t55 -115.5t99.5 -46.5q47 0 82 24 t54.5 67t28.5 95t9 115q0 155 -43.5 246.5t-130.5 91.5q-85 0 -127.5 -90t-42.5 -231zM471 0l725 1393h152l-723 -1393h-154zM1116 410q0 69 9.5 132t33.5 124t60 105.5t93.5 71.5t129.5 27q75 0 133 -28.5t92.5 -73.5t57 -107.5t30.5 -123t8 -127.5q0 -85 -19.5 -160.5 t-58 -137t-102.5 -97t-145 -35.5q-84 0 -148 36.5t-101 98.5t-55 136.5t-18 158.5zM1270 424q0 -87 15.5 -156t55 -115.5t99.5 -46.5q47 0 82 24t54.5 67.5t28.5 95.5t9 115q0 155 -43.5 246t-130.5 91q-85 0 -127.5 -90t-42.5 -231z" />
<glyph unicode="&#x26;" horiz-adv-x="1288" d="M98 371q0 80 24 145t72.5 115t101.5 86.5t130 75.5l-23 30q-69 90 -90 130q-41 79 -41 165q0 120 91 209.5t243 89.5q157 0 242.5 -82t85.5 -205q0 -225 -262 -374l250 -301q43 141 59 241l156 -39q-27 -181 -107 -340l279 -317h-224l-149 174q-153 -199 -412 -199 q-185 0 -305.5 106.5t-120.5 289.5zM272 377q0 -116 79.5 -183t191.5 -67q94 0 171.5 45t125.5 123l-322 385q-56 -31 -93.5 -56.5t-76 -62.5t-57.5 -83t-19 -101zM446 1116q0 -37 16 -76t32 -62t45 -58l39 -50q186 102 186 242q0 73 -45.5 116.5t-112.5 43.5 q-71 0 -115.5 -42.5t-44.5 -113.5z" />
<glyph unicode="'" horiz-adv-x="389" d="M106 1243v150h177v-150l-43 -424h-95z" />
<glyph unicode="(" horiz-adv-x="524" d="M86 526q0 235 67 462t195 421l141 -20q-119 -196 -180 -416t-61 -441q0 -212 65.5 -436t173.5 -405l-141 -27q-132 206 -196 415.5t-64 446.5z" />
<glyph unicode=")" horiz-adv-x="524" d="M35 1389l141 20q128 -194 195 -421t67 -462q0 -237 -64 -446.5t-196 -415.5l-141 27q108 181 173.5 405t65.5 436q0 221 -61 441t-180 416z" />
<glyph unicode="*" horiz-adv-x="870" d="M70 1073l45 139l247 -84v265h146l-2 -265l250 84l45 -139l-252 -80l158 -211l-119 -86l-154 213l-151 -213l-119 86l155 211z" />
<glyph unicode="+" horiz-adv-x="1323" d="M61 530v156h523v528h157v-528h521v-156h-521v-530h-157v530h-523z" />
<glyph unicode="," horiz-adv-x="432" d="M119 0v236h194v-154q0 -170 -18 -236q-38 -132 -176 -143v94q47 6 67 41q23 42 23 133v29h-90z" />
<glyph unicode="-" horiz-adv-x="786" d="M129 467v178h528v-178h-528z" />
<glyph unicode="." horiz-adv-x="432" d="M119 0v236h194v-236h-194z" />
<glyph unicode="/" horiz-adv-x="991" d="M45 0l735 1393h166l-733 -1393h-168z" />
<glyph unicode="0" d="M74 694q0 120 19.5 226t61 198t103 158t150 103.5t196.5 37.5t196.5 -37.5t150 -103t103.5 -157.5t61.5 -198t19.5 -227q0 -114 -16.5 -215.5t-56.5 -195t-99.5 -161t-151.5 -107.5t-207 -40q-116 0 -208 40t-151.5 107t-98.5 161t-55.5 195t-16.5 216zM260 698 q0 -96 10 -176.5t34.5 -155t62.5 -126t98.5 -82.5t138.5 -31q344 0 344 571q0 166 -35 291.5t-114 202t-195 76.5t-195 -76.5t-114 -202t-35 -291.5z" />
<glyph unicode="1" d="M272 958v138h45q158 0 238 59q101 73 107 238h151v-1393h-174v958h-367z" />
<glyph unicode="2" d="M139 989q0 86 31.5 163.5t89.5 136.5t146 93.5t194 34.5q117 0 206.5 -35.5t142.5 -98.5t79.5 -143t26.5 -175q0 -91 -28.5 -178t-73.5 -158t-111 -140.5t-130.5 -122t-142.5 -106.5q-60 -40 -168 -106h664v-154h-915v145q88 55 221 156.5t252 204.5q57 50 97.5 94 t77.5 100t56.5 120.5t19.5 135.5q0 145 -78.5 226.5t-205.5 81.5q-131 0 -201 -76.5t-70 -196.5q0 -105 46 -203l-195 17q-10 23 -20.5 77t-10.5 107z" />
<glyph unicode="3" d="M111 391l165 53q9 -159 93.5 -238t214.5 -79q144 0 226.5 73.5t82.5 200.5q0 167 -148 226q-81 32 -225 32h-127v144h115q145 0 231 39q117 52 117 198q0 104 -70 166t-196 62q-131 0 -203.5 -75t-87.5 -189l-156 49q3 43 19.5 90t53 96.5t87 88.5t127.5 64t168 25 q214 0 327 -100t113 -262q0 -117 -56.5 -196.5t-147.5 -117.5q103 -38 173 -126t70 -220q0 -187 -133.5 -303.5t-361.5 -116.5q-214 0 -337 112t-134 304z" />
<glyph unicode="4" d="M78 344v131l647 918h160v-893h233v-156h-233v-344h-174v344h-633zM272 500h439v444q0 93 8 203q-92 -153 -129 -205z" />
<glyph unicode="5" d="M119 315l172 64q29 -122 109.5 -187t195.5 -65q131 0 221 91t90 263q0 152 -87.5 235t-209.5 83q-112 0 -191.5 -61.5t-111.5 -178.5l-151 49l71 785h787l-10 -160h-623l-41 -387q123 106 295 106q202 0 328.5 -127.5t126.5 -347.5q0 -221 -134.5 -361.5t-363.5 -140.5 q-183 0 -306.5 89.5t-166.5 250.5z" />
<glyph unicode="6" d="M121 686q0 346 135 538.5t385 192.5q84 0 154 -23t116 -59.5t80 -84.5t51 -94t23 -93l-162 -41q-7 29 -16 55.5t-30.5 63.5t-49 63t-72.5 45t-100 19q-153 0 -237 -127.5t-93 -362.5q53 66 143.5 108t204.5 42q201 0 323 -128t122 -323q0 -100 -31 -190t-89 -160 t-148.5 -111t-202.5 -41q-243 0 -374.5 175.5t-131.5 535.5zM305 594q5 -213 90 -340t232 -127q131 0 212 93t81 247q0 145 -81.5 226t-211.5 81q-95 0 -184 -49t-138 -131z" />
<glyph unicode="7" d="M143 967v426h963v-133q-203 -306 -320.5 -609t-146.5 -651h-193q33 331 148.5 632t314.5 603h-600v-268h-166z" />
<glyph unicode="8" d="M109 393q0 242 239 350q-89 37 -145 116.5t-56 187.5q0 162 120 266t335 104t335 -104t120 -266q0 -102 -57 -184.5t-142 -121.5q240 -115 240 -348q0 -84 -30 -158t-88.5 -133t-155.5 -93t-222 -34t-222 34t-155 93t-87 132.5t-29 158.5zM293 395q0 -113 80.5 -190.5 t228.5 -77.5q149 0 230 77.5t81 190.5q0 122 -83.5 196.5t-227.5 74.5q-143 0 -226 -74.5t-83 -196.5zM322 1040q0 -98 74.5 -163.5t205.5 -65.5q130 0 205.5 65.5t75.5 163.5q0 101 -78 164.5t-203 63.5q-126 0 -203 -63t-77 -165z" />
<glyph unicode="9" d="M111 915q0 100 31 190t89 160t148.5 111t202.5 41q243 0 374 -175t131 -535q0 -346 -135 -539t-385 -193q-84 0 -154 23.5t-116 59.5t-80 84.5t-51 94.5t-23 93l162 43q7 -29 16 -55.5t30.5 -63.5t49 -63t72.5 -45t100 -19q153 0 237 126t93 361q-53 -66 -143.5 -107.5 t-204.5 -41.5q-201 0 -322.5 127.5t-121.5 322.5zM289 928q0 -145 81.5 -226t211.5 -81q95 0 183.5 49t137.5 131q-5 213 -89.5 340t-231.5 127q-131 0 -212 -93t-81 -247z" />
<glyph unicode=":" horiz-adv-x="464" d="M135 0v236h195v-236h-195zM135 739v236h195v-236h-195z" />
<glyph unicode=";" horiz-adv-x="464" d="M135 0v236h195v-154q0 -166 -19 -236q-38 -132 -176 -143v94q48 6 68 41q22 40 22 133v29h-90zM135 739v236h195v-236h-195z" />
<glyph unicode="&#x3c;" horiz-adv-x="1540" d="M57 606v164l1389 649v-178l-1172 -551l1172 -553v-184z" />
<glyph unicode="=" horiz-adv-x="1681" d="M154 338v156h1376v-156h-1376zM154 694v156h1376v-156h-1376z" />
<glyph unicode="&#x3e;" horiz-adv-x="1540" d="M94 -47v184l1172 553l-1172 551v178l1389 -649v-164z" />
<glyph unicode="?" horiz-adv-x="970" d="M61 1026q0 163 118.5 273t309.5 110q200 0 310 -103t110 -262q0 -90 -31 -168t-71 -127t-105 -110l-53 -49q-59 -53 -82.5 -95.5t-23.5 -121.5v-64h-183v78q0 95 29.5 155.5t120.5 143.5l76 68q141 124 141 268q0 102 -64.5 168.5t-179.5 66.5q-113 0 -179 -68.5 t-66 -170.5q0 -45 11 -92.5t21 -71.5l11 -25l-187 27q-33 59 -33 170zM358 0v227h185v-227h-185z" />
<glyph unicode="@" horiz-adv-x="1665" d="M86 455q0 174 60.5 323.5t165 253.5t249 162.5t307.5 58.5q131 0 244.5 -35.5t197.5 -99t144 -149.5t90.5 -189t30.5 -215q0 -291 -125 -432q-91 -104 -233 -104q-78 0 -121.5 30t-48.5 84h-3q-27 -46 -90.5 -82t-171.5 -36q-135 0 -215 68.5t-80 191.5q0 129 111 196 q73 43 250 74l117 18q44 8 58.5 18t14.5 36v24q0 76 -37.5 114t-144.5 38q-203 0 -203 -182l-143 16q-3 138 97.5 212.5t254.5 74.5q157 0 238.5 -59.5t81.5 -211.5v-436q0 -43 17 -60.5t52 -17.5q79 0 130 120t51 300q0 113 -37.5 214.5t-107 181t-178 126.5t-241.5 47 t-249 -48.5t-200.5 -135t-132.5 -213t-48 -276.5q0 -301 178.5 -488.5t468.5 -187.5q350 0 575 280l82 -104q-118 -144 -288 -223.5t-373 -79.5q-187 0 -338 59t-250.5 165t-153 254t-53.5 325zM643 291q0 -70 50.5 -110t131.5 -40q91 0 152 45t61 138v159q-52 -15 -100 -24 l-82 -19q-46 -10 -67.5 -15t-52 -15.5t-48.5 -24.5q-45 -31 -45 -94z" />
<glyph unicode="A" horiz-adv-x="1216" d="M12 0l498 1393h201l489 -1393h-194l-140 401h-526l-139 -401h-189zM393 557h422l-158 459q-40 106 -53 164h-2q-25 -86 -53 -166z" />
<glyph unicode="B" horiz-adv-x="1327" d="M162 0v1393h545q114 0 182 -12.5t123 -39.5q182 -92 182 -311q0 -110 -57.5 -186.5t-153.5 -106.5q119 -36 188.5 -125.5t69.5 -216.5q0 -116 -49 -201t-141 -133q-58 -32 -131 -46.5t-199 -14.5h-559zM342 162h371q159 0 215 24q61 28 98 87t37 133q0 125 -102 194 q-46 28 -102.5 35.5t-145.5 7.5h-371v-481zM342 799h352q132 0 207 28q54 25 84.5 73t30.5 114t-30.5 115t-82.5 73q-67 27 -209 27h-352v-430z" />
<glyph unicode="C" horiz-adv-x="1327" d="M88 696q0 211 76.5 374t221.5 255t337 92q182 0 320 -83.5t217 -233.5l-154 -105q-54 128 -152 196.5t-231 68.5q-206 0 -326.5 -153t-120.5 -411q0 -256 120.5 -409.5t326.5 -153.5q133 0 231.5 69t153.5 197l164 -82q-76 -162 -218 -252t-331 -90q-138 0 -255 49 t-201 140t-131.5 227.5t-47.5 304.5z" />
<glyph unicode="D" horiz-adv-x="1357" d="M162 0v1393h340q200 0 307 -17t199 -84q116 -86 187 -242t71 -348q0 -172 -53.5 -315.5t-151.5 -241.5q-37 -36 -73.5 -61t-82.5 -41t-81 -25t-98.5 -13t-104 -4.5t-127.5 -0.5h-332zM342 160h193q81 0 120.5 1.5t95 9t95 26t76.5 49.5q73 60 118 179.5t45 268.5 q0 135 -45.5 257t-124.5 192q-68 57 -152 72.5t-255 15.5h-166v-1071z" />
<glyph unicode="E" horiz-adv-x="1204" d="M162 0v1393h932v-162h-752v-434h682v-162h-682v-473h791v-162h-971z" />
<glyph unicode="F" horiz-adv-x="1130" d="M162 0v1393h919v-160h-739v-434h668v-160h-668v-639h-180z" />
<glyph unicode="G" horiz-adv-x="1409" d="M90 696q0 211 76.5 374.5t221 255t335.5 91.5q185 0 323 -83.5t214 -233.5l-152 -103q-55 126 -153.5 194.5t-231.5 68.5q-205 0 -326 -153.5t-121 -410.5q0 -256 121 -410.5t326 -154.5q107 0 198 38t136 103q38 56 56.5 125.5t19.5 173.5h-480v162h647v-733h-170v178 q-56 -86 -161 -144.5t-250 -58.5q-138 0 -254 49t-199 140t-129.5 227.5t-46.5 304.5z" />
<glyph unicode="H" horiz-adv-x="1417" d="M162 0v1393h180v-590h733v590h180v-1393h-180v641h-733v-641h-180z" />
<glyph unicode="I" horiz-adv-x="503" d="M162 0v1393h180v-1393h-180z" />
<glyph unicode="J" horiz-adv-x="737" d="M31 -6v164q81 -25 151 -25q107 0 164 47q39 32 48 86t9 174v953h181v-1059q0 -143 -49 -219q-87 -140 -334 -140q-92 0 -170 19z" />
<glyph unicode="K" horiz-adv-x="1316" d="M162 0v1393h180v-723l700 723h242l-551 -555l586 -838h-227l-492 713l-258 -267v-446h-180z" />
<glyph unicode="L" horiz-adv-x="1054" d="M162 0v1393h182v-1231h688v-162h-870z" />
<glyph unicode="M" horiz-adv-x="1597" d="M162 0v1393h258l317 -947q20 -56 44.5 -133t25.5 -80q26 109 61 216l306 944h262v-1393h-174v909v295h-2q-39 -155 -66 -235l-305 -969h-170l-316 952q-12 35 -28.5 93t-27.5 99l-11 40h-2q2 -168 2 -291v-893h-174z" />
<glyph unicode="N" horiz-adv-x="1439" d="M162 0v1393h178l655 -936q78 -110 105 -158h2q-4 102 -4 225v869h180v-1393h-178l-651 938q-85 120 -109 168h-2q4 -90 4 -172v-934h-180z" />
<glyph unicode="O" horiz-adv-x="1441" d="M88 696q0 211 76.5 374.5t221 255t335.5 91.5q287 0 459 -200t172 -521q0 -212 -75.5 -374.5t-219.5 -254.5t-336 -92q-191 0 -335.5 91.5t-221 255t-76.5 374.5zM276 696q0 -256 119.5 -408.5t325.5 -152.5q204 0 323 152.5t119 408.5q0 257 -118 409t-324 152 t-325.5 -151.5t-119.5 -409.5z" />
<glyph unicode="P" horiz-adv-x="1241" d="M162 0v1393h518q183 0 283 -41q110 -49 171.5 -139.5t61.5 -219.5q0 -111 -47.5 -195.5t-132.5 -135.5q-70 -41 -150 -54.5t-209 -13.5h-313v-594h-182zM344 754h334q122 0 196 24q138 52 138 215t-138 215q-77 25 -196 25h-334v-479z" />
<glyph unicode="Q" horiz-adv-x="1449" d="M88 696q0 211 76.5 374.5t221 255t335.5 91.5q287 0 459 -200t172 -521q0 -288 -135 -477l145 -149l-131 -127l-139 147q-155 -115 -371 -115q-191 0 -335.5 91.5t-221 255t-76.5 374.5zM276 696q0 -256 119.5 -408.5t325.5 -152.5q204 0 323 152.5t119 408.5 q0 257 -118 409t-324 152t-325.5 -151.5t-119.5 -409.5z" />
<glyph unicode="R" horiz-adv-x="1296" d="M162 0v1393h524q179 0 287 -41q107 -43 167 -136t60 -223q0 -162 -96.5 -262.5t-255.5 -126.5l393 -604h-225l-381 596h-293v-596h-180zM342 756h313q159 0 240 35q119 56 119 204q0 72 -32 125.5t-91 79.5q-84 33 -238 33h-311v-477z" />
<glyph unicode="S" horiz-adv-x="1198" d="M49 260l148 105q53 -99 161.5 -163.5t255.5 -64.5q146 0 237 62.5t91 179.5q0 96 -69 147t-216 88l-170 43q-71 19 -118.5 35t-102 45.5t-86 65.5t-53 92.5t-21.5 128.5q0 123 67 214t174 135t237 44q179 0 305.5 -67t200.5 -166l-134 -113q-131 186 -374 186 q-130 0 -211.5 -57.5t-81.5 -159.5q0 -90 55.5 -135.5t190.5 -79.5l188 -47q76 -20 131 -39.5t109.5 -51.5t88.5 -71t55 -97t21 -130q0 -128 -69.5 -223t-187 -143t-267.5 -48q-189 0 -333.5 78t-221.5 207z" />
<glyph unicode="T" horiz-adv-x="1101" d="M33 1231v162h1036v-162h-428v-1231h-180v1231h-428z" />
<glyph unicode="U" horiz-adv-x="1351" d="M150 573v820h180v-818q0 -72 2 -115t14 -99t35 -93q38 -64 115.5 -99.5t179.5 -35.5t179.5 35.5t115.5 99.5q23 37 35 93t14 99t2 115v818h180v-820q0 -150 -16 -230.5t-56 -149.5q-130 -220 -454 -220q-325 0 -455 220q-40 68 -55.5 148.5t-15.5 231.5z" />
<glyph unicode="V" horiz-adv-x="1198" d="M18 1393h191l340 -994q24 -60 51 -149h2q19 68 51 149l351 994h184l-502 -1393h-180z" />
<glyph unicode="W" horiz-adv-x="1765" d="M27 1393h194l219 -770q16 -54 33 -117.5t31 -118.5t16 -61q77 291 80 301l213 766h139l226 -770q61 -206 79 -291q51 199 78 295l211 766h185l-400 -1393h-145l-246 842q-21 74 -55 211q-4 -15 -58 -215l-241 -838h-144z" />
<glyph unicode="X" horiz-adv-x="1259" d="M-10 0l532 739l-467 654h228l352 -510l352 510h223l-467 -643l523 -750h-219l-416 604l-430 -604h-211z" />
<glyph unicode="Y" horiz-adv-x="1210" d="M8 1393h207l397 -652l408 652h203l-531 -824v-569h-180v569z" />
<glyph unicode="Z" horiz-adv-x="1159" d="M53 0v133l807 1098h-772v162h989v-142l-796 -1089h817v-162h-1045z" />
<glyph unicode="[" horiz-adv-x="591" d="M145 -326v1719h387v-133h-223v-1453h223v-133h-387z" />
<glyph unicode="\" horiz-adv-x="991" d="M45 1393h166l735 -1393h-168z" />
<glyph unicode="]" horiz-adv-x="591" d="M59 -190h224v1450h-224v133h387v-1717h-387v134z" />
<glyph unicode="^" horiz-adv-x="923" d="M18 662l367 731h156l354 -731h-193l-243 528l-244 -528h-197z" />
<glyph unicode="_" horiz-adv-x="1495" d="M209 -168h1077v-156h-1077v156z" />
<glyph unicode="`" horiz-adv-x="874" d="M211 1393h217l141 -263h-149z" />
<glyph unicode="a" horiz-adv-x="1019" d="M80 268q0 154 125 228q83 49 284 84l134 22q48 8 65 19.5t17 40.5v20q0 42 -8 71.5t-29.5 54.5t-64 37.5t-105.5 12.5q-230 0 -230 -207l-164 19v7q0 99 54 173q56 76 145.5 110.5t202.5 34.5q86 0 149 -14t112.5 -47.5t75 -95t25.5 -150.5v-495q0 -50 19.5 -69.5 t64.5 -19.5h23v-118q-45 -9 -96 -9q-85 0 -122 34t-42 98h-2q-32 -52 -105.5 -94t-195.5 -42q-152 0 -242 78t-90 217zM256 276q0 -81 57 -125.5t150 -44.5q102 0 172 52.5t70 158.5v179q-30 -13 -113 -29l-94 -21q-53 -11 -76.5 -16.5t-58.5 -18.5t-56 -28 q-51 -36 -51 -107z" />
<glyph unicode="b" horiz-adv-x="1128" d="M135 0v1393h170v-562q33 63 113.5 114.5t199.5 51.5q189 0 310 -136.5t121 -375.5q0 -236 -117.5 -373t-306.5 -137q-123 0 -204.5 52t-115.5 116v-143h-170zM289 489q0 -179 84.5 -274.5t218.5 -95.5q132 0 207 98t75 272q0 176 -77.5 272.5t-208.5 96.5 q-132 0 -215.5 -95.5t-83.5 -273.5z" />
<glyph unicode="c" horiz-adv-x="1015" d="M80 483q0 233 128.5 373.5t334.5 140.5q150 0 253.5 -68.5t153.5 -195.5l-141 -74q-70 197 -266 197q-132 0 -210.5 -99t-78.5 -272q0 -171 80.5 -269.5t208.5 -98.5q203 0 282 176l133 -68q-60 -122 -166.5 -186t-248.5 -64q-216 0 -339.5 137t-123.5 371z" />
<glyph unicode="d" horiz-adv-x="1128" d="M80 485q0 239 120.5 375.5t309.5 136.5q119 0 199.5 -51.5t113.5 -114.5v562h170v-1393h-170v143q-34 -64 -115 -116t-204 -52q-189 0 -306.5 137t-117.5 373zM254 489q0 -174 75.5 -272t207.5 -98q134 0 218.5 95.5t84.5 274.5q0 178 -83.5 273.5t-215.5 95.5 q-131 0 -209 -97t-78 -272z" />
<glyph unicode="e" horiz-adv-x="1056" d="M80 492q0 223 130.5 364t332.5 141q142 0 242.5 -68t148 -182t47.5 -262v-36h-729q2 -62 20.5 -118.5t54.5 -104t96.5 -75.5t137.5 -28q189 0 291 166l123 -88q-15 -23 -33.5 -46t-57.5 -57.5t-83.5 -60t-112.5 -44t-143 -18.5q-212 0 -338.5 137.5t-126.5 379.5z M258 584h547q-11 130 -79 203t-183 73q-114 0 -193 -75t-92 -201z" />
<glyph unicode="f" horiz-adv-x="649" d="M37 846v129h199v196q0 119 59.5 177.5t187.5 58.5q69 0 129 -12v-138q-56 7 -80 7q-81 0 -106 -37q-20 -31 -20 -101v-151h206v-129h-206v-846h-170v846h-199z" />
<glyph unicode="g" horiz-adv-x="1128" d="M82 494q0 228 121.5 365.5t310.5 137.5q105 0 187.5 -47.5t123.5 -118.5v144h170v-916q0 -168 -43 -266q-46 -106 -146.5 -152.5t-266.5 -46.5q-379 0 -426 338l159 27q35 -225 269 -225q87 0 143.5 20t87 64.5t42 103t11.5 148.5l2 98q-36 -76 -119.5 -123t-193.5 -47 q-195 0 -313.5 133t-118.5 363zM256 496q0 -164 75 -258.5t208 -94.5q136 0 219.5 88t83.5 263q0 177 -82.5 269.5t-216.5 92.5q-131 0 -209 -97.5t-78 -262.5z" />
<glyph unicode="h" horiz-adv-x="1079" d="M135 0v1393h170v-564q42 74 120.5 121t192.5 47q194 0 275 -125q61 -94 61 -262v-610h-170v567q0 153 -54.5 217t-166.5 64q-119 0 -188.5 -82.5t-69.5 -202.5v-563h-170z" />
<glyph unicode="i" horiz-adv-x="440" d="M135 0v975h170v-975h-170zM135 1176v217h170v-217h-170z" />
<glyph unicode="j" horiz-adv-x="440" d="M-35 -266q24 -4 60 -4q73 0 94 37q16 27 16 100v1108h170v-1143q0 -80 -14 -121q-23 -66 -79 -95.5t-155 -29.5q-51 0 -92 6v142zM135 1176v217h170v-217h-170z" />
<glyph unicode="k" horiz-adv-x="1007" d="M135 0v1393h170v-852l445 434h213l-400 -381l436 -594h-213l-346 479l-135 -133v-346h-170z" />
<glyph unicode="l" horiz-adv-x="460" d="M145 0v1393h170v-1393h-170z" />
<glyph unicode="m" horiz-adv-x="1630" d="M135 0v975h170v-146q33 72 114.5 120t178.5 48q218 0 279 -184q39 77 124 130.5t199 53.5q104 0 178 -49.5t105 -150.5q22 -74 22 -179v-618h-170v555q0 116 -22 180q-43 115 -174 115q-98 0 -166 -82t-68 -201v-567h-170v555q0 116 -22 180q-43 115 -174 115 q-98 0 -166 -82t-68 -201v-567h-170z" />
<glyph unicode="n" horiz-adv-x="1079" d="M135 0v975h170v-146q42 74 120.5 121t192.5 47q194 0 275 -125q61 -94 61 -262v-610h-170v567q0 153 -54.5 217t-166.5 64q-119 0 -188.5 -82.5t-69.5 -202.5v-563h-170z" />
<glyph unicode="o" horiz-adv-x="1089" d="M80 483q0 233 129 373.5t336 140.5t336 -140.5t129 -373.5q0 -232 -127.5 -370t-337.5 -138t-337.5 138t-127.5 370zM254 485q0 -172 80 -270t211 -98t211 98.5t80 269.5q0 175 -79 274t-212 99t-212 -100t-79 -273z" />
<glyph unicode="p" horiz-adv-x="1128" d="M135 -389v1364h170v-144q33 63 113.5 114.5t199.5 51.5q189 0 310 -136.5t121 -375.5q0 -236 -117.5 -373t-306.5 -137q-123 0 -204.5 52t-115.5 116v-532h-170zM289 489q0 -179 84.5 -274.5t218.5 -95.5q132 0 207 98t75 272q0 176 -77.5 272.5t-208.5 96.5 q-132 0 -215.5 -95.5t-83.5 -273.5z" />
<glyph unicode="q" horiz-adv-x="1128" d="M80 485q0 239 120.5 375.5t309.5 136.5q119 0 199.5 -51.5t113.5 -114.5v144h170v-1364h-170v532q-34 -64 -115 -116t-204 -52q-189 0 -306.5 137t-117.5 373zM254 489q0 -174 75.5 -272t207.5 -98q134 0 218.5 95.5t84.5 274.5q0 178 -83.5 273.5t-215.5 95.5 q-131 0 -209 -97t-78 -272z" />
<glyph unicode="r" horiz-adv-x="696" d="M135 0v975h170v-184q17 84 105 146t190 62q34 0 55 -6v-162q-35 7 -63 7q-88 0 -155 -48.5t-99.5 -122t-32.5 -157.5v-510h-170z" />
<glyph unicode="s" horiz-adv-x="944" d="M53 168l111 115q59 -76 140 -121t177 -45q102 0 163 40.5t61 112.5q0 63 -41.5 89t-128.5 42l-134 27q-68 13 -119.5 32.5t-96 50.5t-68 79t-23.5 110q0 75 32.5 134t87 93.5t119 52t134.5 17.5q125 0 222 -45t151 -108l-111 -111q-110 123 -270 123q-85 0 -139 -35 t-54 -98q0 -64 49 -93t170 -55l113 -22q132 -28 206.5 -89t74.5 -179q0 -145 -114 -227.5t-294 -82.5q-131 0 -242.5 55.5t-175.5 137.5z" />
<glyph unicode="t" horiz-adv-x="649" d="M25 846v129h188v352l170 37v-389h215v-129h-215v-604q0 -69 14 -92q17 -33 88 -33q47 0 113 12v-133q-86 -21 -170 -21q-164 0 -203 103q-12 34 -12 94v674h-188z" />
<glyph unicode="u" horiz-adv-x="1069" d="M125 420v555h170v-561q0 -135 33 -197q26 -50 71.5 -71t116.5 -21q118 0 183 83t65 208v559h170v-975h-170v143q-95 -168 -311 -168q-160 0 -244 93q-48 55 -66 126.5t-18 225.5z" />
<glyph unicode="v" horiz-adv-x="911" d="M25 975h178l203 -592q20 -54 55 -172h2q36 118 57 178l201 586h168l-354 -975h-162z" />
<glyph unicode="w" horiz-adv-x="1495" d="M29 975h180l178 -535q36 -104 64 -209h2q29 115 61 211l174 533h148l159 -535q42 -131 62 -209h2q36 135 63 215l170 529h176l-338 -975h-153l-170 555q-34 104 -53 182h-2q-15 -63 -54 -184l-176 -553h-160z" />
<glyph unicode="x" horiz-adv-x="913" d="M20 0l340 506l-313 469h207l213 -342l215 342h188l-313 -459l334 -516h-205l-233 391l-246 -391h-187z" />
<glyph unicode="y" horiz-adv-x="903" d="M29 975h180l190 -590l54 -170h2q28 96 59 182l199 578h170l-428 -1174q-43 -120 -112.5 -163.5t-182.5 -43.5q-52 0 -123 13v137q68 -10 110 -10q84 0 123 39q33 33 54 98l43 125z" />
<glyph unicode="z" horiz-adv-x="903" d="M63 0v135l549 699h-522v141h735v-131l-561 -703h567v-141h-768z" />
<glyph unicode="{" horiz-adv-x="552" d="M66 481v121q30 9 51 19.5t34 29t20.5 33t10.5 46.5t3.5 52.5t0.5 67.5v250q0 164 58 228.5t205 64.5h34v-127q-80 0 -106.5 -34t-26.5 -136v-240q0 -151 -25.5 -219t-111.5 -94v-2q86 -26 111.5 -94.5t25.5 -219.5v-254q0 -102 26.5 -136t106.5 -34v-127h-34 q-147 0 -205 64.5t-58 228.5v264q0 47 -0.5 67.5t-3.5 52.5t-10.5 46.5t-20.5 33t-34 29t-51 19.5z" />
<glyph unicode="|" horiz-adv-x="452" d="M145 -324v1717h162v-1717h-162z" />
<glyph unicode="}" horiz-adv-x="552" d="M70 -197q80 0 106.5 34t26.5 136v254q0 151 25.5 219.5t111.5 94.5v2q-86 26 -111.5 94t-25.5 219v240q0 102 -26.5 136t-106.5 34v127h34q147 0 205 -64.5t58 -228.5v-250q0 -47 0.5 -67.5t3.5 -52.5t10.5 -46.5t20.5 -33t34 -29t51 -19.5v-121q-30 -9 -51 -19.5 t-34 -29t-20.5 -33t-10.5 -46.5t-3.5 -52.5t-0.5 -67.5v-264q0 -164 -58 -228.5t-205 -64.5h-34v127z" />
<glyph unicode="~" horiz-adv-x="1122" d="M80 569q16 24 28.5 42t40 47t54 48t66 33.5t81.5 14.5q41 0 87.5 -12.5t76 -25.5t84.5 -40q5 -2 26 -12.5l27 -13.5t23.5 -11t26 -10.5t22 -7t24 -6t21.5 -1.5q28 0 56 12.5t55 37.5t43.5 43.5t40.5 48.5l81 -140q-65 -81 -132 -127.5t-150 -46.5q-54 0 -106.5 18.5 t-131.5 61.5q-106 58 -176 58q-47 0 -82.5 -30.5t-99.5 -113.5z" />
<glyph unicode="&#xa1;" horiz-adv-x="434" d="M125 719v256h182v-256h-182zM131 276l27 345h118l25 -345v-694h-170v694z" />
<glyph unicode="&#xa2;" horiz-adv-x="1026" d="M86 483q0 210 106 346.5t283 161.5v197h148v-195q244 -30 333 -260l-143 -86q-53 167 -190 201v-725q141 27 206 186l136 -84q-52 -105 -139.5 -167.5t-202.5 -77.5v-211h-148v213q-184 23 -286.5 155.5t-102.5 345.5zM260 485q0 -145 58 -238t157 -120v719 q-101 -27 -158 -120.5t-57 -240.5z" />
<glyph unicode="&#xa3;" horiz-adv-x="1130" d="M86 0v150q84 5 129.5 33t66.5 92.5t21 183.5q0 49 -6 157h-211v160h201q-6 177 -6 197q0 93 20 169t63.5 138.5t120 97.5t181.5 35q86 0 154.5 -23.5t111.5 -60.5t71.5 -87t40 -100t11.5 -102l-166 -45q-3 267 -225 267q-110 0 -162.5 -76t-52.5 -205q0 -35 10 -205h305 v-160h-293q0 -25 2 -79.5t2 -75.5q0 -110 -21 -186t-85 -117q35 2 219 2h436v-160h-938z" />
<glyph unicode="&#xa4;" horiz-adv-x="1114" d="M92 231l125 125q-63 99 -63 224q0 127 65 227q-24 25 -69.5 69t-57.5 56l117 117l125 -127q92 63 223 63q136 0 225 -63l123 122l115 -114l-121 -123q64 -103 64 -227q0 -133 -62 -228q16 -17 37 -38t46 -45.5t36 -35.5l-115 -114l-121 123q-97 -66 -227 -66 q-136 0 -227 64l-123 -123zM299 580q0 -108 76 -187.5t182 -79.5q109 0 184.5 79t75.5 188q0 110 -74.5 189t-185.5 79q-107 0 -182.5 -78.5t-75.5 -189.5z" />
<glyph unicode="&#xa5;" horiz-adv-x="1220" d="M57 1391h201l360 -641l340 641h205l-375 -646h295v-149h-381v-127h381v-150h-381v-319h-182v319h-383v150h383v127h-383v149h297z" />
<glyph unicode="&#xa6;" horiz-adv-x="462" d="M147 274h168v-661h-168v661zM147 729v662h168v-662h-168z" />
<glyph unicode="&#xa7;" horiz-adv-x="1009" d="M63 10l111 115q128 -166 320 -166q98 0 159.5 39.5t61.5 112.5q0 16 -4 30.5t-13 27.5t-17.5 23.5t-25.5 22t-27.5 19t-32 18t-31.5 15.5t-34 15.5t-32 14.5l-103 47q-58 25 -94 43t-76.5 46t-63 58.5t-37.5 74.5t-15 98q0 95 56.5 164t127.5 94q-24 17 -39.5 30.5 t-39 41t-36 64.5t-12.5 81q0 91 55.5 156.5t137 95.5t176.5 30q125 0 222.5 -45t151.5 -108l-110 -111q-110 123 -271 123q-82 0 -136 -34.5t-54 -92.5q0 -32 11 -56t43 -45.5t53 -32t76 -33.5q5 -2 8.5 -3.5t7.5 -3.5l118 -49q57 -24 98.5 -49t80 -61t59 -84.5t20.5 -108.5 q0 -184 -163 -277q27 -17 46 -33t43 -42.5t37 -63.5t13 -80q0 -146 -114 -229.5t-292 -83.5q-136 0 -246.5 54.5t-173.5 137.5zM283 682q0 -66 44.5 -106t147.5 -87l131 -61q137 44 137 172q0 69 -52 117t-152 88l-103 39q-71 -15 -112 -59t-41 -103z" />
<glyph unicode="&#xa8;" horiz-adv-x="993" d="M225 1151v221h174v-221h-174zM594 1151v221h174v-221h-174z" />
<glyph unicode="&#xa9;" horiz-adv-x="1572" d="M90 715q0 194 91 354.5t251.5 253t355.5 92.5q146 0 275 -54.5t221 -148t145.5 -223t53.5 -274.5q0 -195 -90.5 -355.5t-250.5 -253t-354 -92.5q-195 0 -355.5 92.5t-251.5 253t-91 355.5zM238 715q0 -152 71.5 -281.5t198.5 -206.5t280 -77q152 0 278.5 77t197.5 206.5 t71 281.5t-71 281t-197.5 205.5t-278.5 76.5q-153 0 -280 -76.5t-198.5 -205.5t-71.5 -281zM424 713q0 189 99 297t263 108q114 0 198 -60.5t126 -168.5l-123 -74q-60 174 -201 174q-101 0 -159 -70t-58 -204q0 -133 59.5 -205t157.5 -72q140 0 207 158l117 -76 q-47 -98 -131.5 -154.5t-192.5 -56.5q-165 0 -263.5 107t-98.5 297z" />
<glyph unicode="&#xaa;" horiz-adv-x="763" d="M90 948q0 49 16 83t50.5 55t71 32.5t94.5 22.5l122 22q20 4 27.5 6t14 9.5t6.5 21.5v10q0 50 -28 78.5t-102 28.5q-145 0 -145 -133l-111 14q0 104 73 160.5t190 56.5q119 0 178 -44.5t59 -160.5v-315q0 -29 11 -40t38 -11h23v-88q-28 -4 -66 -4q-97 0 -112 69 q-59 -73 -187 -73q-101 0 -162 52t-61 148zM215 948q0 -50 34 -75t91 -25q65 0 108.5 33.5t43.5 107.5v90q-12 -3 -74 -14l-70 -14q-26 -5 -40 -9t-34.5 -12t-31.5 -18t-19 -26.5t-8 -37.5z" />
<glyph unicode="&#xab;" horiz-adv-x="942" d="M100 518v213l310 258v-196l-201 -158l201 -174v-191zM514 518v213l309 258v-196l-200 -158l200 -174v-191z" />
<glyph unicode="&#xac;" horiz-adv-x="1153" d="M86 795v135h934v-565h-154v430h-780z" />
<glyph unicode="&#xad;" horiz-adv-x="786" d="M129 467v178h528v-178h-528z" />
<glyph unicode="&#xae;" horiz-adv-x="1572" d="M90 715q0 194 91 354.5t251.5 253t355.5 92.5q146 0 275 -54.5t221 -148t145.5 -223t53.5 -274.5q0 -195 -90.5 -355.5t-250.5 -253t-354 -92.5q-195 0 -355.5 92.5t-251.5 253t-91 355.5zM238 715q0 -152 71.5 -281.5t198.5 -206.5t280 -77q152 0 278.5 77t197.5 206.5 t71 281.5t-71 281t-197.5 205.5t-278.5 76.5q-153 0 -280 -76.5t-198.5 -205.5t-71.5 -281zM473 309v811h332q109 0 168 -26q60 -26 99.5 -79.5t39.5 -133.5q0 -88 -55.5 -150.5t-141.5 -81.5l238 -340h-170l-229 332h-144v-332h-137zM610 768h178q96 0 125 14q58 27 58 99 q0 76 -58 100q-29 14 -125 14h-178v-227z" />
<glyph unicode="&#xaf;" horiz-adv-x="964" d="M205 1192v137h555v-137h-555z" />
<glyph unicode="&#xb0;" horiz-adv-x="763" d="M78 1118q0 126 88 212.5t217 86.5t216 -86.5t87 -212.5t-87 -213.5t-216 -87.5t-217 87.5t-88 213.5zM229 1118q0 -65 45 -110t109 -45t109 45t45 110t-45 110.5t-109 45.5t-109 -45.5t-45 -110.5z" />
<glyph unicode="&#xb1;" horiz-adv-x="1413" d="M106 0v156h1201v-156h-1201zM106 639v156h523v426h157v-426h521v-156h-521v-428h-157v428h-523z" />
<glyph unicode="&#xb2;" horiz-adv-x="808" d="M104 1137q0 112 82.5 193t216.5 81q142 0 218.5 -80t76.5 -205q0 -46 -12.5 -90.5t-30 -80t-49.5 -73.5t-58 -63.5t-70 -59.5t-71 -52.5t-73 -49.5v-4l198 4h5h157v-120h-577v112q54 32 135 92t151 121q70 63 109 122.5t39 135.5q0 80 -42 123t-112 43t-109.5 -43 t-39.5 -104q0 -64 35 -135l-150 12q-29 54 -29 121z" />
<glyph unicode="&#xb3;" horiz-adv-x="784" d="M78 795l143 32q3 -95 48 -137.5t116 -42.5q77 0 121.5 38t44.5 108q0 137 -197 137h-61v121h51q42 0 72 4.5t57.5 17t42 37t14.5 61.5q0 57 -36.5 89t-106.5 32q-74 0 -112.5 -42.5t-43.5 -110.5l-129 30q0 27 10 58.5t33 64.5t56 60t83.5 44t110.5 17q129 0 204 -60.5 t75 -158.5q0 -72 -35 -121t-86 -72q59 -26 100 -79t41 -134q0 -120 -85 -193t-228 -73q-134 0 -214.5 74t-88.5 199z" />
<glyph unicode="&#xb4;" horiz-adv-x="915" d="M350 1130l142 263h217l-209 -263h-150z" />
<glyph unicode="&#xb5;" horiz-adv-x="1056" d="M139 -389v1364h172v-561q0 -135 33 -197q26 -50 71.5 -71t116.5 -21q118 0 183 83t65 208v559h170v-975h-170v143q-43 -76 -117 -122t-176 -46q-55 0 -105 19t-67 39v-422h-176z" />
<glyph unicode="&#xb6;" horiz-adv-x="1316" d="M57 987q0 203 138 313q60 48 136.5 70.5t213.5 22.5h700v-133h-162v-1522h-145v1522h-227v-1522h-148v844h-18q-137 0 -213.5 22t-136.5 70q-138 110 -138 313z" />
<glyph unicode="&#xb7;" horiz-adv-x="446" d="M127 539v233h195v-233h-195z" />
<glyph unicode="&#xb8;" horiz-adv-x="735" d="M205 -117l96 131h113l-60 -84h6q74 0 122 -38.5t48 -110.5q0 -88 -58.5 -132t-143.5 -44q-56 0 -111 20l25 78q30 -12 71 -12q42 0 69.5 18t27.5 55q0 36 -25.5 54t-62.5 18q-46 0 -76 -18z" />
<glyph unicode="&#xb9;" horiz-adv-x="536" d="M55 1110v113h49q89 0 127 32q49 39 52 138h123v-856h-142v573h-209z" />
<glyph unicode="&#xba;" horiz-adv-x="755" d="M84 1104q0 152 80.5 243t214.5 91t213.5 -91t79.5 -243q0 -155 -79 -244.5t-214 -89.5q-136 0 -215.5 89.5t-79.5 244.5zM207 1104q0 -105 48.5 -166t123.5 -61q74 0 122 61.5t48 165.5t-47 165.5t-123 61.5t-124 -62t-48 -165z" />
<glyph unicode="&#xbb;" horiz-adv-x="942" d="M119 270v191l200 174l-200 158v196l309 -258v-213zM532 270v191l201 174l-201 158v196l310 -258v-213z" />
<glyph unicode="&#xbc;" horiz-adv-x="1558" d="M66 1110v113h49q89 0 127 32q48 38 51 138h123v-856h-142v573h-208zM309 0l725 1393h152l-723 -1393h-154zM815 217v94l395 553h131v-526h158v-121h-158v-217h-139v217h-387zM977 338h225v151q0 75 8 191h-2q-12 -30 -43 -78l-82 -123q-22 -34 -48.5 -69t-42.5 -54z" />
<glyph unicode="&#xbd;" horiz-adv-x="1634" d="M61 1110v113h50q89 0 127 32q48 38 51 138h123v-856h-142v573h-209zM303 0l725 1393h152l-723 -1393h-154zM961 600q0 112 82.5 193t216.5 81q142 0 218 -79.5t76 -204.5q0 -46 -12.5 -90.5t-30 -80t-49.5 -73.5t-58 -63.5t-70 -59.5t-71 -52.5t-73 -49.5v-4l198 4h5h157 v-121h-577v113q55 32 136 92t151 121q70 63 108.5 122.5t38.5 135.5q0 80 -42 123t-112 43t-109.5 -43.5t-39.5 -104.5q0 -64 35 -135l-150 12q-28 52 -28 121z" />
<glyph unicode="&#xbe;" horiz-adv-x="1746" d="M70 795l143 32q3 -95 48 -137.5t116 -42.5q77 0 121.5 38t44.5 108q0 137 -197 137h-61v121h51q42 0 72 4.5t57.5 17t42 37t14.5 61.5q0 57 -36.5 89t-106.5 32q-74 0 -112.5 -42.5t-43.5 -110.5l-129 30q0 27 10 58.5t33 64.5t56 60t83.5 44t110.5 17q129 0 204 -60.5 t75 -158.5q0 -72 -35 -121t-86 -72q59 -26 100 -79t41 -134q0 -120 -85 -193t-228 -73q-134 0 -214.5 74t-88.5 199zM498 0l725 1393h151l-723 -1393h-153zM1004 217v94l395 553h131v-526h158v-121h-158v-217h-139v217h-387zM1165 338h226v151q0 75 8 191h-2 q-12 -30 -43 -78l-82 -123q-22 -34 -48.5 -69t-42.5 -54z" />
<glyph unicode="&#xbf;" horiz-adv-x="958" d="M55 -68q0 68 15.5 127.5t47 109.5t64 87t80.5 82l53 49q60 54 83.5 96.5t23.5 120.5v64h182v-78q0 -95 -29 -156t-120 -143l-76 -68q-141 -124 -141 -268q0 -102 64 -169t179 -67q113 0 179.5 69t66.5 171q0 45 -10.5 92t-21.5 71l-11 25l186 -26q33 -59 33 -170 q0 -163 -118.5 -273t-309.5 -110q-200 0 -310 102.5t-110 261.5zM422 750v227h184v-227h-184z" />
<glyph unicode="&#xc0;" horiz-adv-x="1216" d="M12 0l498 1393h201l489 -1393h-194l-140 401h-526l-139 -401h-189zM291 1821h250l215 -297h-174zM393 557h422l-158 459q-40 106 -53 164h-2q-25 -86 -53 -166z" />
<glyph unicode="&#xc1;" horiz-adv-x="1216" d="M12 0l498 1393h201l489 -1393h-194l-140 401h-526l-139 -401h-189zM393 557h422l-158 459q-40 106 -53 164h-2q-25 -86 -53 -166zM494 1524l215 297h249l-290 -297h-174z" />
<glyph unicode="&#xc2;" horiz-adv-x="1216" d="M12 0l498 1393h201l489 -1393h-194l-140 401h-526l-139 -401h-189zM311 1524l219 299h158l217 -299h-170l-127 170l-123 -170h-174zM393 557h422l-158 459q-40 106 -53 164h-2q-25 -86 -53 -166z" />
<glyph unicode="&#xc3;" horiz-adv-x="1216" d="M12 0l498 1393h201l489 -1393h-194l-140 401h-526l-139 -401h-189zM272 1571q79 209 220 209q63 0 137 -43q6 -3 22 -12t24.5 -13.5t21.5 -10.5t24 -8.5t22 -2.5q53 0 84 96l136 -35q-16 -37 -27.5 -59.5t-32 -54t-41 -49t-50.5 -31t-64 -13.5q-64 0 -160 51q-5 2 -29 16 t-41.5 20.5t-34.5 6.5q-29 0 -48 -31t-25 -65zM393 557h422l-158 459q-40 106 -53 164h-2q-25 -86 -53 -166z" />
<glyph unicode="&#xc4;" horiz-adv-x="1216" d="M12 0l498 1393h201l489 -1393h-194l-140 401h-526l-139 -401h-189zM342 1538v221h174v-221h-174zM393 557h422l-158 459q-40 106 -53 164h-2q-25 -86 -53 -166zM711 1538v221h174v-221h-174z" />
<glyph unicode="&#xc5;" horiz-adv-x="1216" d="M12 0l498 1393h201l489 -1393h-194l-140 401h-526l-139 -401h-189zM393 557h422l-158 459q-40 106 -53 164h-2q-25 -86 -53 -166zM401 1651q0 84 59 142t144 58t144 -58t59 -142q0 -85 -59 -143t-144 -58t-144 58t-59 143zM522 1651q0 -33 23.5 -56.5t56.5 -23.5 t56.5 23.5t23.5 56.5t-23.5 56.5t-56.5 23.5t-56.5 -23.5t-23.5 -56.5z" />
<glyph unicode="&#xc6;" horiz-adv-x="1927" d="M-43 0l829 1393h1029v-160h-752v-434h682v-162h-682v-475h792v-162h-972v371h-502l-215 -371h-209zM471 532h412v435q0 204 4 282h-4q-13 -21 -48.5 -87.5t-48.5 -88.5z" />
<glyph unicode="&#xc7;" horiz-adv-x="1327" d="M88 696q0 211 76.5 374t221.5 255t337 92q182 0 320 -83.5t217 -233.5l-154 -105q-54 128 -152 196.5t-231 68.5q-206 0 -326.5 -153t-120.5 -411q0 -256 120.5 -409.5t326.5 -153.5q133 0 231.5 69t153.5 197l164 -82q-73 -153 -203.5 -242t-304.5 -98l-27 -47h6 q74 0 122 -38.5t48 -110.5q0 -88 -58.5 -132t-143.5 -44q-56 0 -111 20l25 78q30 -12 71 -12q42 0 69.5 18t27.5 55q0 36 -25.5 54t-62.5 18q-46 0 -76 -18l-41 65l69 97q-256 22 -412.5 211.5t-156.5 504.5z" />
<glyph unicode="&#xc8;" horiz-adv-x="1204" d="M162 0v1393h932v-162h-752v-434h682v-162h-682v-473h791v-162h-971zM311 1821h250l215 -297h-174z" />
<glyph unicode="&#xc9;" horiz-adv-x="1204" d="M162 0v1393h932v-162h-752v-434h682v-162h-682v-473h791v-162h-971zM489 1524l216 297h249l-290 -297h-175z" />
<glyph unicode="&#xca;" horiz-adv-x="1204" d="M162 0v1393h932v-162h-752v-434h682v-162h-682v-473h791v-162h-971zM340 1524l219 299h158l217 -299h-170l-127 170l-123 -170h-174z" />
<glyph unicode="&#xcb;" horiz-adv-x="1204" d="M162 0v1393h932v-162h-752v-434h682v-162h-682v-473h791v-162h-971zM358 1538v221h174v-221h-174zM727 1538v221h174v-221h-174z" />
<glyph unicode="&#xcc;" horiz-adv-x="503" d="M-117 1821h250l215 -297h-174zM162 0v1393h180v-1393h-180z" />
<glyph unicode="&#xcd;" horiz-adv-x="503" d="M158 1524l215 297h250l-291 -297h-174zM162 0v1393h180v-1393h-180z" />
<glyph unicode="&#xce;" horiz-adv-x="503" d="M-45 1524l219 299h158l217 -299h-170l-127 170l-123 -170h-174zM162 0v1393h180v-1393h-180z" />
<glyph unicode="&#xcf;" horiz-adv-x="503" d="M-18 1538v221h174v-221h-174zM162 0v1393h180v-1393h-180zM350 1538v221h174v-221h-174z" />
<glyph unicode="&#xd0;" horiz-adv-x="1366" d="M41 659v158h129v574h340q200 0 307 -17t199 -84q116 -86 187 -242t71 -348q0 -171 -53.5 -314t-151.5 -241q-37 -36 -73.5 -61t-82.5 -41t-81 -25t-98.5 -13t-104 -4.5t-127.5 -0.5h-332v659h-129zM350 160h193q81 0 120.5 1.5t95 9t95 26t76.5 49.5q73 61 118.5 179 t45.5 267q0 135 -45.5 257t-124.5 192q-68 57 -152.5 72.5t-255.5 15.5h-166v-412h455v-158h-455v-499z" />
<glyph unicode="&#xd1;" horiz-adv-x="1439" d="M162 0v1393h178l655 -936q78 -110 105 -158h2q-4 102 -4 225v869h180v-1393h-178l-651 938q-85 120 -109 168h-2q4 -90 4 -172v-934h-180zM391 1571q79 209 219 209q64 0 138 -43q6 -3 22 -12t24.5 -13.5t21.5 -10.5t24 -8.5t22 -2.5q53 0 84 96l135 -35 q-16 -37 -27.5 -59.5t-32 -54t-41 -49t-50.5 -31t-64 -13.5q-63 0 -159 51q-5 2 -29 16t-41.5 20.5t-34.5 6.5q-29 0 -48.5 -31t-25.5 -65z" />
<glyph unicode="&#xd2;" horiz-adv-x="1441" d="M88 696q0 211 76.5 374.5t221 255t335.5 91.5q287 0 459 -200t172 -521q0 -212 -75.5 -374.5t-219.5 -254.5t-336 -92q-191 0 -335.5 91.5t-221 255t-76.5 374.5zM276 696q0 -256 119.5 -408.5t325.5 -152.5q204 0 323 152.5t119 408.5q0 257 -118 409t-324 152 t-325.5 -151.5t-119.5 -409.5zM406 1821h249l215 -297h-174z" />
<glyph unicode="&#xd3;" horiz-adv-x="1441" d="M88 696q0 211 76.5 374.5t221 255t335.5 91.5q287 0 459 -200t172 -521q0 -212 -75.5 -374.5t-219.5 -254.5t-336 -92q-191 0 -335.5 91.5t-221 255t-76.5 374.5zM276 696q0 -256 119.5 -408.5t325.5 -152.5q204 0 323 152.5t119 408.5q0 257 -118 409t-324 152 t-325.5 -151.5t-119.5 -409.5zM571 1524l215 297h250l-291 -297h-174z" />
<glyph unicode="&#xd4;" horiz-adv-x="1441" d="M88 696q0 211 76.5 374.5t221 255t335.5 91.5q287 0 459 -200t172 -521q0 -212 -75.5 -374.5t-219.5 -254.5t-336 -92q-191 0 -335.5 91.5t-221 255t-76.5 374.5zM276 696q0 -256 119.5 -408.5t325.5 -152.5q204 0 323 152.5t119 408.5q0 257 -118 409t-324 152 t-325.5 -151.5t-119.5 -409.5zM428 1524l219 299h158l217 -299h-170l-127 170l-123 -170h-174z" />
<glyph unicode="&#xd5;" horiz-adv-x="1441" d="M88 696q0 211 76.5 374.5t221 255t335.5 91.5q287 0 459 -200t172 -521q0 -212 -75.5 -374.5t-219.5 -254.5t-336 -92q-191 0 -335.5 91.5t-221 255t-76.5 374.5zM276 696q0 -256 119.5 -408.5t325.5 -152.5q204 0 323 152.5t119 408.5q0 257 -118 409t-324 152 t-325.5 -151.5t-119.5 -409.5zM385 1571q79 209 219 209q63 0 137 -43q5 -3 22 -12.5t25 -13.5t21.5 -10t24.5 -8.5t22 -2.5q53 0 84 96l135 -35q-16 -37 -27.5 -59.5t-32 -54t-41 -49t-50.5 -31t-64 -13.5q-64 0 -160 51q-6 3 -29 16t-40.5 20t-34.5 7q-29 0 -48.5 -31 t-25.5 -65z" />
<glyph unicode="&#xd6;" horiz-adv-x="1441" d="M88 696q0 211 76.5 374.5t221 255t335.5 91.5q287 0 459 -200t172 -521q0 -212 -75.5 -374.5t-219.5 -254.5t-336 -92q-191 0 -335.5 91.5t-221 255t-76.5 374.5zM276 696q0 -256 119.5 -408.5t325.5 -152.5q204 0 323 152.5t119 408.5q0 257 -118 409t-324 152 t-325.5 -151.5t-119.5 -409.5zM455 1538v221h174v-221h-174zM823 1538v221h174v-221h-174z" />
<glyph unicode="&#xd7;" horiz-adv-x="1298" d="M84 150l453 452l-451 453l111 110l450 -452l455 454l112 -112l-454 -455l452 -450l-110 -111l-453 450l-452 -452z" />
<glyph unicode="&#xd8;" horiz-adv-x="1447" d="M43 70l164 182q-115 185 -115 444q0 211 76.5 374.5t221 255t335.5 91.5q233 0 397 -139l164 184l119 -102l-178 -199q129 -189 129 -465q0 -212 -75.5 -374.5t-219.5 -254.5t-336 -92q-255 0 -420 156l-145 -164zM281 696q0 -174 55 -299l672 754q-112 106 -283 106 q-206 0 -325 -151.5t-119 -409.5zM422 260q116 -125 303 -125q204 0 323 152.5t119 408.5q0 191 -65 324z" />
<glyph unicode="&#xd9;" horiz-adv-x="1351" d="M150 573v820h180v-818q0 -72 2 -115t14 -99t35 -93q38 -64 115.5 -99.5t179.5 -35.5t179.5 35.5t115.5 99.5q23 37 35 93t14 99t2 115v818h180v-820q0 -150 -16 -230.5t-56 -149.5q-130 -220 -454 -220q-325 0 -455 220q-40 68 -55.5 148.5t-15.5 231.5zM362 1821h250 l215 -297h-174z" />
<glyph unicode="&#xda;" horiz-adv-x="1351" d="M150 573v820h180v-818q0 -72 2 -115t14 -99t35 -93q38 -64 115.5 -99.5t179.5 -35.5t179.5 35.5t115.5 99.5q23 37 35 93t14 99t2 115v818h180v-820q0 -150 -16 -230.5t-56 -149.5q-130 -220 -454 -220q-325 0 -455 220q-40 68 -55.5 148.5t-15.5 231.5zM532 1524 l216 297h249l-290 -297h-175z" />
<glyph unicode="&#xdb;" horiz-adv-x="1351" d="M150 573v820h180v-818q0 -72 2 -115t14 -99t35 -93q38 -64 115.5 -99.5t179.5 -35.5t179.5 35.5t115.5 99.5q23 37 35 93t14 99t2 115v818h180v-820q0 -150 -16 -230.5t-56 -149.5q-130 -220 -454 -220q-325 0 -455 220q-40 68 -55.5 148.5t-15.5 231.5zM383 1524 l219 299h158l217 -299h-170l-127 170l-123 -170h-174z" />
<glyph unicode="&#xdc;" horiz-adv-x="1351" d="M150 573v820h180v-818q0 -72 2 -115t14 -99t35 -93q38 -64 115.5 -99.5t179.5 -35.5t179.5 35.5t115.5 99.5q23 37 35 93t14 99t2 115v818h180v-820q0 -150 -16 -230.5t-56 -149.5q-130 -220 -454 -220q-325 0 -455 220q-40 68 -55.5 148.5t-15.5 231.5zM410 1538v221 h174v-221h-174zM778 1538v221h174v-221h-174z" />
<glyph unicode="&#xdd;" horiz-adv-x="1210" d="M8 1393h207l397 -652l408 652h203l-531 -824v-569h-180v569zM487 1524l215 297h250l-290 -297h-175z" />
<glyph unicode="&#xde;" horiz-adv-x="1226" d="M162 0v1393h180v-226h332q178 0 274 -41q108 -47 168 -135t60 -213q0 -108 -46.5 -190t-130.5 -133q-67 -40 -144.5 -53t-203.5 -13h-309v-389h-180zM342 547h326q120 0 190 24q135 49 135 207t-135 207q-73 25 -190 25h-326v-463z" />
<glyph unicode="&#xdf;" horiz-adv-x="991" d="M135 0v932q0 135 10 202t35 115q86 168 320 168q177 0 265.5 -87.5t88.5 -231.5q0 -99 -37.5 -164.5t-99.5 -97.5q39 -17 68.5 -42.5t58 -70t44 -118.5t15.5 -173q0 -236 -77 -340t-228 -104q-127 0 -182 71q-58 73 -58 248v68h125v-39q0 -98 17 -150q12 -31 32.5 -48 t59.5 -17q80 0 110.5 74.5t30.5 238.5q0 103 -16.5 168t-59.5 100q-56 43 -204 43h-47v136h32q112 0 160 20q82 36 82 182q0 89 -46.5 142t-131.5 53q-63 0 -108 -28t-64 -76q-25 -70 -25 -250v-924h-170z" />
<glyph unicode="&#xe0;" horiz-adv-x="1019" d="M80 268q0 154 125 228q83 49 284 84l134 22q48 8 65 19.5t17 40.5v20q0 42 -8 71.5t-29.5 54.5t-64 37.5t-105.5 12.5q-230 0 -230 -207l-164 19q-2 105 54 180.5t145.5 110t202.5 34.5q86 0 149 -14t112.5 -47.5t75 -95t25.5 -150.5v-495q0 -50 19.5 -69.5t64.5 -19.5 h23v-118q-45 -9 -96 -9q-85 0 -122 34t-42 98h-2q-32 -52 -105.5 -94t-195.5 -42q-152 0 -242 78t-90 217zM256 276q0 -81 57 -125.5t150 -44.5q102 0 172 52.5t70 158.5v179q-30 -13 -113 -29l-94 -21q-53 -11 -76.5 -16.5t-58.5 -18.5t-56 -28q-51 -36 -51 -107zM291 1393 h217l141 -263h-149z" />
<glyph unicode="&#xe1;" horiz-adv-x="1019" d="M80 268q0 154 125 228q83 49 284 84l134 22q48 8 65 19.5t17 40.5v20q0 42 -8 71.5t-29.5 54.5t-64 37.5t-105.5 12.5q-230 0 -230 -207l-164 19q-2 105 54 180.5t145.5 110t202.5 34.5q86 0 149 -14t112.5 -47.5t75 -95t25.5 -150.5v-495q0 -50 19.5 -69.5t64.5 -19.5 h23v-118q-45 -9 -96 -9q-85 0 -122 34t-42 98h-2q-32 -52 -105.5 -94t-195.5 -42q-152 0 -242 78t-90 217zM256 276q0 -81 57 -125.5t150 -44.5q102 0 172 52.5t70 158.5v179q-30 -13 -113 -29l-94 -21q-53 -11 -76.5 -16.5t-58.5 -18.5t-56 -28q-51 -36 -51 -107zM395 1130 l142 263h217l-209 -263h-150z" />
<glyph unicode="&#xe2;" horiz-adv-x="1019" d="M80 268q0 154 125 228q83 49 284 84l134 22q48 8 65 19.5t17 40.5v20q0 42 -8 71.5t-29.5 54.5t-64 37.5t-105.5 12.5q-230 0 -230 -207l-164 19q-2 105 54 180.5t145.5 110t202.5 34.5q86 0 149 -14t112.5 -47.5t75 -95t25.5 -150.5v-495q0 -50 19.5 -69.5t64.5 -19.5 h23v-118q-45 -9 -96 -9q-85 0 -122 34t-42 98h-2q-32 -52 -105.5 -94t-195.5 -42q-152 0 -242 78t-90 217zM223 1130l201 263h162l202 -263h-153l-131 136l-123 -136h-158zM256 276q0 -81 57 -125.5t150 -44.5q102 0 172 52.5t70 158.5v179q-30 -13 -113 -29l-94 -21 q-53 -11 -76.5 -16.5t-58.5 -18.5t-56 -28q-51 -36 -51 -107z" />
<glyph unicode="&#xe3;" horiz-adv-x="1019" d="M80 268q0 154 125 228q83 49 284 84l134 22q48 8 65 19.5t17 40.5v20q0 42 -8 71.5t-29.5 54.5t-64 37.5t-105.5 12.5q-230 0 -230 -207l-164 19q-2 105 54 180.5t145.5 110t202.5 34.5q86 0 149 -14t112.5 -47.5t75 -95t25.5 -150.5v-495q0 -50 19.5 -69.5t64.5 -19.5 h23v-118q-45 -9 -96 -9q-85 0 -122 34t-42 98h-2q-32 -52 -105.5 -94t-195.5 -42q-152 0 -242 78t-90 217zM174 1180q79 209 219 209q63 0 137 -43q4 -2 27 -15t32 -17.5t26 -10t30 -5.5q52 0 84 97l135 -35q-16 -37 -27.5 -59.5t-32 -54t-41 -49t-50.5 -31t-64 -13.5 q-64 0 -160 51q-6 3 -29 16t-40.5 20t-34.5 7q-29 0 -48.5 -31t-25.5 -65zM256 276q0 -81 57 -125.5t150 -44.5q102 0 172 52.5t70 158.5v179q-30 -13 -113 -29l-94 -21q-53 -11 -76.5 -16.5t-58.5 -18.5t-56 -28q-51 -36 -51 -107z" />
<glyph unicode="&#xe4;" horiz-adv-x="1019" d="M80 268q0 154 125 228q83 49 284 84l134 22q48 8 65 19.5t17 40.5v20q0 42 -8 71.5t-29.5 54.5t-64 37.5t-105.5 12.5q-230 0 -230 -207l-164 19q-2 105 54 180.5t145.5 110t202.5 34.5q86 0 149 -14t112.5 -47.5t75 -95t25.5 -150.5v-495q0 -50 19.5 -69.5t64.5 -19.5 h23v-118q-45 -9 -96 -9q-85 0 -122 34t-42 98h-2q-32 -52 -105.5 -94t-195.5 -42q-152 0 -242 78t-90 217zM252 1151v221h174v-221h-174zM256 276q0 -81 57 -125.5t150 -44.5q102 0 172 52.5t70 158.5v179q-30 -13 -113 -29l-94 -21q-53 -11 -76.5 -16.5t-58.5 -18.5 t-56 -28q-51 -36 -51 -107zM621 1151v221h174v-221h-174z" />
<glyph unicode="&#xe5;" horiz-adv-x="1019" d="M80 268q0 154 125 228q83 49 284 84l134 22q48 8 65 19.5t17 40.5v20q0 42 -8 71.5t-29.5 54.5t-64 37.5t-105.5 12.5q-230 0 -230 -207l-164 19q-2 105 54 180.5t145.5 110t202.5 34.5q86 0 149 -14t112.5 -47.5t75 -95t25.5 -150.5v-495q0 -50 19.5 -69.5t64.5 -19.5 h23v-118q-45 -9 -96 -9q-85 0 -122 34t-42 98h-2q-32 -52 -105.5 -94t-195.5 -42q-152 0 -242 78t-90 217zM256 276q0 -81 57 -125.5t150 -44.5q102 0 172 52.5t70 158.5v179q-30 -13 -113 -29l-94 -21q-53 -11 -76.5 -16.5t-58.5 -18.5t-56 -28q-51 -36 -51 -107zM301 1249 q0 85 59 143t144 58t144 -58t59 -143q0 -84 -59 -142t-144 -58t-144 58t-59 142zM422 1249q0 -33 23.5 -56.5t56.5 -23.5t56.5 23.5t23.5 56.5t-23.5 56.5t-56.5 23.5t-56.5 -23.5t-23.5 -56.5z" />
<glyph unicode="&#xe6;" horiz-adv-x="1658" d="M80 268q0 154 125 228q83 49 284 84l134 22q48 8 65 19.5t17 40.5v20q0 42 -8 71.5t-29.5 54.5t-64 37.5t-105.5 12.5q-230 0 -230 -207l-164 19q-2 105 54 180.5t145.5 110t202.5 34.5q242 0 319 -123q131 125 320 125q142 0 242.5 -68.5t148 -182.5t47.5 -263v-34h-729 q2 -61 19.5 -116.5t52.5 -103.5t95 -77t138 -29q191 0 297 172l123 -92q-16 -24 -34.5 -47t-58 -58t-84 -60.5t-112.5 -44t-143 -18.5q-233 0 -361 162q-15 -23 -44 -48.5t-73.5 -53t-110 -45t-136.5 -17.5q-156 0 -249 78t-93 217zM256 276q0 -81 57 -125.5t150 -44.5 q102 0 172 52.5t70 158.5v179q-30 -13 -113 -29l-94 -21q-53 -11 -76.5 -16.5t-58.5 -18.5t-56 -28q-51 -36 -51 -107zM860 584h547q-11 130 -79 203t-183 73q-114 0 -193 -75t-92 -201z" />
<glyph unicode="&#xe7;" horiz-adv-x="1015" d="M80 483q0 233 128.5 373.5t334.5 140.5q150 0 253.5 -68.5t153.5 -195.5l-141 -74q-70 197 -266 197q-132 0 -210.5 -99t-78.5 -272q0 -171 80.5 -269.5t208.5 -98.5q203 0 282 176l133 -68q-56 -114 -151.5 -177.5t-224.5 -70.5l-29 -47h6q74 0 122 -38.5t48 -110.5 q0 -88 -59 -132t-144 -44q-55 0 -110 20l24 78q30 -12 72 -12t69 18t27 55q0 36 -25.5 54t-62.5 18q-46 0 -76 -18l-41 65l74 97q-187 20 -292 153t-105 350z" />
<glyph unicode="&#xe8;" horiz-adv-x="1056" d="M80 492q0 223 130.5 364t332.5 141q142 0 242.5 -68t148 -182t47.5 -262v-36h-729q2 -62 20.5 -118.5t54.5 -104t96.5 -75.5t137.5 -28q189 0 291 166l123 -88q-15 -23 -33.5 -46t-57.5 -57.5t-83.5 -60t-112.5 -44t-143 -18.5q-212 0 -338.5 137.5t-126.5 379.5z M258 584h547q-11 130 -79 203t-183 73q-114 0 -193 -75t-92 -201zM301 1393h217l141 -263h-149z" />
<glyph unicode="&#xe9;" horiz-adv-x="1056" d="M80 492q0 223 130.5 364t332.5 141q142 0 242.5 -68t148 -182t47.5 -262v-36h-729q2 -62 20.5 -118.5t54.5 -104t96.5 -75.5t137.5 -28q189 0 291 166l123 -88q-15 -23 -33.5 -46t-57.5 -57.5t-83.5 -60t-112.5 -44t-143 -18.5q-212 0 -338.5 137.5t-126.5 379.5z M258 584h547q-11 130 -79 203t-183 73q-114 0 -193 -75t-92 -201zM440 1130l142 263h217l-209 -263h-150z" />
<glyph unicode="&#xea;" horiz-adv-x="1056" d="M80 492q0 223 130.5 364t332.5 141q142 0 242.5 -68t148 -182t47.5 -262v-36h-729q2 -62 20.5 -118.5t54.5 -104t96.5 -75.5t137.5 -28q189 0 291 166l123 -88q-15 -23 -33.5 -46t-57.5 -57.5t-83.5 -60t-112.5 -44t-143 -18.5q-212 0 -338.5 137.5t-126.5 379.5z M258 584h547q-11 130 -79 203t-183 73q-114 0 -193 -75t-92 -201zM268 1130l201 263h162l203 -263h-154l-131 136l-123 -136h-158z" />
<glyph unicode="&#xeb;" horiz-adv-x="1056" d="M80 492q0 223 130.5 364t332.5 141q142 0 242.5 -68t148 -182t47.5 -262v-36h-729q2 -62 20.5 -118.5t54.5 -104t96.5 -75.5t137.5 -28q189 0 291 166l123 -88q-15 -23 -33.5 -46t-57.5 -57.5t-83.5 -60t-112.5 -44t-143 -18.5q-212 0 -338.5 137.5t-126.5 379.5z M258 584h547q-11 130 -79 203t-183 73q-114 0 -193 -75t-92 -201zM281 1151v221h174v-221h-174zM649 1151v221h174v-221h-174z" />
<glyph unicode="&#xec;" horiz-adv-x="440" d="M-49 1393h217l141 -263h-149zM135 0v975h170v-975h-170z" />
<glyph unicode="&#xed;" horiz-adv-x="440" d="M135 0v975h170v-975h-170zM139 1130l142 263h217l-209 -263h-150z" />
<glyph unicode="&#xee;" horiz-adv-x="440" d="M-61 1130l200 263h162l203 -263h-154l-131 136l-123 -136h-157zM135 0v975h170v-975h-170z" />
<glyph unicode="&#xef;" horiz-adv-x="440" d="M-53 1151v221h174v-221h-174zM135 0v975h170v-975h-170zM315 1151v221h174v-221h-174z" />
<glyph unicode="&#xf0;" horiz-adv-x="1073" d="M80 492q0 233 123 368t325 135q54 0 117.5 -18.5t112.5 -50.5q-53 145 -96 209q-34 -11 -148.5 -49t-171.5 -56l-43 119l289 90q-61 80 -150 164l131 76q112 -122 166 -193l211 70l43 -117l-182 -57q178 -299 178 -656q0 -118 -27 -216t-81 -174t-142.5 -118.5 t-204.5 -42.5q-206 0 -328 140.5t-122 376.5zM250 494q0 -170 76.5 -269.5t203.5 -99.5q129 0 206 99.5t77 269.5q0 172 -76 264t-207 92t-205.5 -92.5t-74.5 -263.5z" />
<glyph unicode="&#xf1;" horiz-adv-x="1079" d="M135 0v975h170v-146q42 74 120.5 121t192.5 47q194 0 275 -125q61 -94 61 -262v-610h-170v567q0 153 -54.5 217t-166.5 64q-119 0 -188.5 -82.5t-69.5 -202.5v-563h-170zM223 1180q79 209 219 209q64 0 138 -43q5 -3 27 -15t31.5 -17t26 -10.5t29.5 -5.5q52 0 84 97 l135 -35q-16 -37 -27.5 -59.5t-32 -54t-41 -49t-50.5 -31t-64 -13.5q-63 0 -159 51q-5 2 -29 16t-41.5 20.5t-34.5 6.5q-29 0 -48.5 -31t-25.5 -65z" />
<glyph unicode="&#xf2;" horiz-adv-x="1089" d="M80 483q0 233 129 373.5t336 140.5t336 -140.5t129 -373.5q0 -232 -127.5 -370t-337.5 -138t-337.5 138t-127.5 370zM254 485q0 -172 80 -270t211 -98t211 98.5t80 269.5q0 175 -79 274t-212 99t-212 -100t-79 -273zM317 1393h218l141 -263h-150z" />
<glyph unicode="&#xf3;" horiz-adv-x="1089" d="M80 483q0 233 129 373.5t336 140.5t336 -140.5t129 -373.5q0 -232 -127.5 -370t-337.5 -138t-337.5 138t-127.5 370zM254 485q0 -172 80 -270t211 -98t211 98.5t80 269.5q0 175 -79 274t-212 99t-212 -100t-79 -273zM438 1130l142 263h217l-209 -263h-150z" />
<glyph unicode="&#xf4;" horiz-adv-x="1089" d="M80 483q0 233 129 373.5t336 140.5t336 -140.5t129 -373.5q0 -232 -127.5 -370t-337.5 -138t-337.5 138t-127.5 370zM254 485q0 -172 80 -270t211 -98t211 98.5t80 269.5q0 175 -79 274t-212 99t-212 -100t-79 -273zM266 1130l201 263h162l202 -263h-153l-131 136 l-123 -136h-158z" />
<glyph unicode="&#xf5;" horiz-adv-x="1089" d="M80 483q0 233 129 373.5t336 140.5t336 -140.5t129 -373.5q0 -232 -127.5 -370t-337.5 -138t-337.5 138t-127.5 370zM207 1180q79 209 219 209q63 0 137 -43q4 -2 27 -15t32 -17.5t26 -10t30 -5.5q52 0 84 97l135 -35q-16 -37 -27.5 -59.5t-32 -54t-41 -49t-50.5 -31 t-64 -13.5q-64 0 -160 51q-6 3 -29 16t-40.5 20t-34.5 7q-29 0 -48.5 -31t-25.5 -65zM254 485q0 -172 80 -270t211 -98t211 98.5t80 269.5q0 175 -79 274t-212 99t-212 -100t-79 -273z" />
<glyph unicode="&#xf6;" horiz-adv-x="1089" d="M80 483q0 233 129 373.5t336 140.5t336 -140.5t129 -373.5q0 -232 -127.5 -370t-337.5 -138t-337.5 138t-127.5 370zM254 485q0 -172 80 -270t211 -98t211 98.5t80 269.5q0 175 -79 274t-212 99t-212 -100t-79 -273zM276 1151v221h175v-221h-175zM645 1151v221h174v-221 h-174z" />
<glyph unicode="&#xf7;" horiz-adv-x="1599" d="M111 410v155h1378v-155h-1378zM702 0v223h195v-223h-195zM702 752v223h195v-223h-195z" />
<glyph unicode="&#xf8;" horiz-adv-x="1089" d="M80 12l100 131q-100 137 -100 340q0 233 129 373.5t336 140.5q137 0 243 -65l99 127l125 -90l-109 -142q107 -135 107 -344q0 -232 -127.5 -370t-337.5 -138q-139 0 -248 64l-94 -125zM254 485q0 -120 37 -198l407 526q-67 45 -153 45q-133 0 -212 -100t-79 -273z M391 162q67 -45 154 -45q131 0 211 98.5t80 269.5q0 119 -39 205z" />
<glyph unicode="&#xf9;" horiz-adv-x="1069" d="M125 420v555h170v-561q0 -135 33 -197q26 -50 71.5 -71t116.5 -21q118 0 183 83t65 208v559h170v-975h-170v143q-95 -168 -311 -168q-160 0 -244 93q-48 55 -66 126.5t-18 225.5zM299 1393h217l141 -263h-149z" />
<glyph unicode="&#xfa;" horiz-adv-x="1069" d="M125 420v555h170v-561q0 -135 33 -197q26 -50 71.5 -71t116.5 -21q118 0 183 83t65 208v559h170v-975h-170v143q-95 -168 -311 -168q-160 0 -244 93q-48 55 -66 126.5t-18 225.5zM422 1130l141 263h217l-209 -263h-149z" />
<glyph unicode="&#xfb;" horiz-adv-x="1069" d="M125 420v555h170v-561q0 -135 33 -197q26 -50 71.5 -71t116.5 -21q118 0 183 83t65 208v559h170v-975h-170v143q-95 -168 -311 -168q-160 0 -244 93q-48 55 -66 126.5t-18 225.5zM250 1130l201 263h161l203 -263h-153l-132 136l-122 -136h-158z" />
<glyph unicode="&#xfc;" horiz-adv-x="1069" d="M125 420v555h170v-561q0 -135 33 -197q26 -50 71.5 -71t116.5 -21q118 0 183 83t65 208v559h170v-975h-170v143q-95 -168 -311 -168q-160 0 -244 93q-48 55 -66 126.5t-18 225.5zM264 1151v221h174v-221h-174zM633 1151v221h174v-221h-174z" />
<glyph unicode="&#xfd;" horiz-adv-x="903" d="M29 975h180l190 -590l54 -170h2q28 96 59 182l199 578h170l-428 -1174q-43 -120 -112.5 -163.5t-182.5 -43.5q-52 0 -123 13v137q68 -10 110 -10q84 0 123 39q33 33 54 98l43 125zM360 1130l142 263h217l-209 -263h-150z" />
<glyph unicode="&#xfe;" horiz-adv-x="1136" d="M135 -389v1782h170v-562q42 70 126.5 118t193.5 48q191 0 310.5 -135.5t119.5 -376.5q0 -235 -120 -372.5t-312 -137.5q-109 0 -193 46t-125 122v-532h-170zM299 487q0 -175 83.5 -272.5t215.5 -97.5t207.5 98t75.5 272q0 175 -78 272t-209 97q-130 0 -212.5 -97 t-82.5 -272z" />
<glyph unicode="&#xff;" horiz-adv-x="903" d="M29 975h180l190 -590l54 -170h2q28 96 59 182l199 578h170l-428 -1174q-43 -120 -112.5 -163.5t-182.5 -43.5q-52 0 -123 13v137q68 -10 110 -10q84 0 123 39q33 33 54 98l43 125zM193 1151v221h174v-221h-174zM561 1151v221h174v-221h-174z" />
<glyph unicode="&#x152;" horiz-adv-x="2007" d="M90 692q0 337 186.5 530t511.5 193q98 0 232 -24h874v-162h-743v-428h674v-162h-674v-477h782v-162h-913q-136 -25 -234 -25q-324 0 -510 185.5t-186 531.5zM276 692q0 -109 26 -200.5t72.5 -157.5t110.5 -112t140.5 -68.5t162.5 -22.5q114 0 181 19v1085q-81 16 -183 16 q-238 0 -374 -141t-136 -418z" />
<glyph unicode="&#x153;" horiz-adv-x="1798" d="M80 483q0 233 129 373.5t336 140.5q117 0 212.5 -48.5t157.5 -137.5q62 89 157.5 137.5t211.5 48.5q142 0 242.5 -68t148 -182t47.5 -262v-36h-729q2 -62 20.5 -118.5t54.5 -104t97 -75.5t138 -28q188 0 290 166l123 -88q-15 -23 -33.5 -46t-57.5 -57.5t-83.5 -60 t-112.5 -44t-143 -18.5q-246 0 -371 179q-62 -86 -157 -132.5t-213 -46.5q-210 0 -337.5 138t-127.5 370zM254 485q0 -172 80 -270t211 -98t211 98.5t80 269.5q0 175 -79 274t-212 99t-212 -100t-79 -273zM999 584h547q-11 130 -79 203t-183 73q-114 0 -193 -75t-92 -201z " />
<glyph unicode="&#x178;" horiz-adv-x="1210" d="M8 1393h207l397 -652l408 652h203l-531 -824v-569h-180v569zM358 1538v221h174v-221h-174zM727 1538v221h174v-221h-174z" />
<glyph unicode="&#x2c6;" horiz-adv-x="1038" d="M236 1130l200 263h162l203 -263h-154l-131 136l-123 -136h-157z" />
<glyph unicode="&#x2dc;" horiz-adv-x="1099" d="M205 1180q79 209 219 209q63 0 137 -43q4 -2 27 -15t32 -17.5t26 -10t30 -5.5q52 0 84 97l135 -35q-16 -37 -27.5 -59.5t-32 -54t-41 -49t-50.5 -31t-64 -13.5q-64 0 -160 51q-6 3 -29 16t-40.5 20t-34.5 7q-29 0 -48.5 -31t-25.5 -65z" />
<glyph unicode="&#x2000;" horiz-adv-x="925" />
<glyph unicode="&#x2001;" horiz-adv-x="1851" />
<glyph unicode="&#x2002;" horiz-adv-x="925" />
<glyph unicode="&#x2003;" horiz-adv-x="1851" />
<glyph unicode="&#x2004;" horiz-adv-x="617" />
<glyph unicode="&#x2005;" horiz-adv-x="462" />
<glyph unicode="&#x2006;" horiz-adv-x="308" />
<glyph unicode="&#x2007;" horiz-adv-x="308" />
<glyph unicode="&#x2008;" horiz-adv-x="231" />
<glyph unicode="&#x2009;" horiz-adv-x="370" />
<glyph unicode="&#x200a;" horiz-adv-x="102" />
<glyph unicode="&#x2010;" horiz-adv-x="786" d="M129 467v178h528v-178h-528z" />
<glyph unicode="&#x2011;" horiz-adv-x="786" d="M129 467v178h528v-178h-528z" />
<glyph unicode="&#x2012;" horiz-adv-x="786" d="M129 467v178h528v-178h-528z" />
<glyph unicode="&#x2013;" horiz-adv-x="1292" d="M127 479v156h1038v-156h-1038z" />
<glyph unicode="&#x2014;" horiz-adv-x="1685" d="M127 479v156h1432v-156h-1432z" />
<glyph unicode="&#x2018;" horiz-adv-x="421" d="M113 885v153q0 170 18 236q38 132 176 143v-94q-47 -6 -67 -41q-23 -42 -23 -133v-29h90v-235h-194z" />
<glyph unicode="&#x2019;" horiz-adv-x="411" d="M117 860v94q47 6 67 41q23 42 23 133v29h-90v236h194v-154q0 -169 -18 -235q-38 -133 -176 -144z" />
<glyph unicode="&#x201a;" horiz-adv-x="432" d="M119 0v236h194v-154q0 -170 -18 -236q-38 -132 -176 -143v94q47 6 67 41q23 42 23 133v29h-90z" />
<glyph unicode="&#x201c;" horiz-adv-x="714" d="M113 885v153q0 170 18 236q38 132 176 143v-94q-47 -6 -67 -41q-23 -42 -23 -133v-29h90v-235h-194zM406 885v153q0 170 18 236q38 132 176 143v-94q-48 -6 -68 -41q-22 -40 -22 -133v-29h90v-235h-194z" />
<glyph unicode="&#x201d;" horiz-adv-x="704" d="M117 860v94q47 6 67 41q23 42 23 133v29h-90v236h194v-154q0 -169 -18 -235q-38 -133 -176 -144zM410 860v94q47 6 67 41q23 42 23 133v29h-90v236h194v-154q0 -169 -18 -235q-38 -133 -176 -144z" />
<glyph unicode="&#x201e;" horiz-adv-x="724" d="M119 0v236h194v-154q0 -170 -18 -236q-38 -132 -176 -143v94q47 6 67 41q23 42 23 133v29h-90zM412 0v236h194v-154q0 -170 -18 -236q-38 -132 -176 -143v94q47 6 67 41q23 42 23 133v29h-90z" />
<glyph unicode="&#x2022;" horiz-adv-x="839" d="M133 702q0 120 83.5 203.5t203.5 83.5t203.5 -83.5t83.5 -203.5t-83.5 -203t-203.5 -83t-203.5 83t-83.5 203z" />
<glyph unicode="&#x2026;" horiz-adv-x="1804" d="M119 0v233h194v-233h-194zM805 0v233h194v-233h-194zM1491 0v233h195v-233h-195z" />
<glyph unicode="&#x202f;" horiz-adv-x="370" />
<glyph unicode="&#x2039;" horiz-adv-x="528" d="M100 518v213l310 258v-196l-193 -158l193 -174v-191z" />
<glyph unicode="&#x203a;" horiz-adv-x="528" d="M119 270v191l192 174l-192 158v196l309 -258v-213z" />
<glyph unicode="&#x205f;" horiz-adv-x="462" />
<glyph unicode="&#x20ac;" horiz-adv-x="1222" d="M61 453l52 145h90q-2 14 -2 94q0 54 2 66h-142l52 145h104q36 236 159 375t331 139q322 0 434 -332l-142 -84q-77 269 -292 269q-130 0 -209 -99.5t-103 -267.5h502l-49 -145h-467q-2 -16 -2 -76q0 -72 2 -84h430l-49 -145h-365q11 -70 33 -126.5t58 -103.5t92 -72.5 t127 -25.5q220 0 292 252l144 -70q-104 -332 -436 -332q-112 0 -201 39.5t-146 108.5t-91.5 151t-49.5 179h-158z" />
<glyph unicode="&#x2122;" horiz-adv-x="1888" d="M102 1251v142h695v-142h-273v-772h-149v772h-273zM883 477v916h190l150 -441q43 -130 80 -274h4q66 242 77 274l138 441h194v-916h-145v455q0 160 10 258h-4q-33 -146 -64 -248l-149 -465h-121l-160 463q-40 112 -63 234h-4q12 -119 12 -240v-457h-145z" />
<glyph unicode="&#x25fc;" horiz-adv-x="972" d="M0 0v973h973v-973h-973z" />
</font>
</defs>
</svg>
