<svg width="67" height="67" xmlns="http://www.w3.org/2000/svg">
 <g>
  <title>Zerply</title>
  <rect id="svg_138" height="66.991" width="66.99" fill="#ABCD48" y="0.005" x="0.005"/>
  <path id="svg_139" d="m28.147,14.163c0,0 0.357,2.234 3.405,2.234s15.594,0 15.594,0s1.434,0.516 -0.181,1.891c-1.613,1.375 -20.073,21.656 -20.073,21.656s-0.359,1.375 1.792,0.859c2.15,-0.517 6.453,1.544 8.602,3.78c2.151,2.232 8.783,3.095 11.291,1.544c0,0 1.075,3.611 -2.508,5.847c-3.585,2.233 -6.272,1.719 -10.038,-1.204c-3.763,-2.922 -6.99,-5.5 -11.291,-5.5c-4.302,0 -8.066,-1.202 -5.557,-4.125c2.509,-2.922 16.669,-19.076 16.669,-19.076l-8.245,0.172c0,0 -4.122,-0.688 -3.405,-4.295c0.719,-3.612 3.945,-3.783 3.945,-3.783z" fill="#FFFFFF"/>
 </g>
</svg>