<svg width="67" height="67" xmlns="http://www.w3.org/2000/svg">
 <linearGradient gradientTransform="matrix(20.8333 0 0 -20.8333 392.334 5685.6719)" y2="6.82986" x2="-0.5688" y1="6.87281" x1="-0.5688" id="SVGID_1_">
  <stop stop-color="#D62829" offset="0"/>
  <stop stop-color="#AD3229" offset="1"/>
 </linearGradient>
 <linearGradient gradientTransform="matrix(20.8333 0 0 -20.8333 392.334 5685.6719)" y2="48.28272" x2="-10.95745" y1="48.32963" x1="-10.95745" id="SVGID_2_">
  <stop stop-color="#F9C906" offset="0"/>
  <stop stop-color="#EB9406" offset="1"/>
 </linearGradient>
 <linearGradient gradientTransform="matrix(20.8333 0 0 -20.8333 392.334 5685.6719)" y2="27.47545" x2="-5.6779" y1="27.52334" x1="-5.6779" id="SVGID_3_">
  <stop stop-color="#F9C906" offset="0"/>
  <stop stop-color="#EB9406" offset="1"/>
 </linearGradient>
 <linearGradient gradientTransform="matrix(20.8333 0 0 -20.8333 392.334 5685.6719)" y2="17.64454" x2="-3.76729" y1="17.69229" x1="-3.76729" id="SVGID_4_">
  <stop stop-color="#F9C906" offset="0"/>
  <stop stop-color="#EB9406" offset="1"/>
 </linearGradient>
 <g>
  <title>Webio</title>
  <rect id="svg_102" height="66.991" width="66.99" fill="#A6DBEE" y="0.005" x="0.005"/>
  <path id="svg_103" d="m27.875,20.504c0,0 -4.335,-2.03 -12.457,8.123c-8.122,10.153 -6.201,18.221 -1.152,21.347c5.05,3.128 15.42,5.379 23.928,0.714c8.504,-4.665 12.566,-11.471 9.438,-15.312s-7.244,-2.525 -7.244,-2.525s2.414,-4.06 -0.165,-6.036s-8.67,0.548 -10.592,2.359c0,0.001 1.592,-7.572 -1.756,-8.67z" fill="url(#SVGID_1_)"/>
  <ellipse id="svg_104" ry="14.631" rx="9.319" cy="41.892" cx="27.702" fill="#FFFFFF" transform="matrix(-0.1264,-0.992,0.992,-0.1264,-10.3521,74.6675) "/>
  <ellipse id="svg_105" ry="7.185" rx="6.124" cy="42.915" cx="25.982" stroke-miterlimit="10" stroke="#000000" transform="matrix(-0.6201,-0.7845,0.7845,-0.6201,8.4269,89.9098) "/>
  <ellipse id="svg_106" ry="2.243" rx="1.912" cy="44.262" cx="24.002" stroke-miterlimit="10" stroke="#000000" fill="#FFFFFF" transform="matrix(-0.7906,-0.6123,0.6123,-0.7906,15.8775,93.9525) "/>
  <ellipse id="svg_107" ry="0.864" rx="0.828" cy="42.042" cx="26.915" stroke-miterlimit="10" stroke="#000000" fill="#FFFFFF" transform="matrix(-0.7905,-0.6125,0.6125,-0.7905,22.4406,91.7612) "/>
  <path id="svg_108" d="m44.612,27.474c-0.396,0 -0.745,-0.286 -0.812,-0.689c-0.474,-2.883 -2.481,-2.724 -2.566,-2.718c-0.452,0.043 -0.854,-0.288 -0.898,-0.74c-0.043,-0.452 0.288,-0.855 0.742,-0.897c1.255,-0.119 3.771,0.58 4.349,4.088c0.074,0.448 -0.231,0.871 -0.679,0.945c-0.046,0.007 -0.092,0.011 -0.136,0.011z" fill="url(#SVGID_2_)"/>
  <path id="svg_109" d="m48.838,27.035c-0.595,0 -1.136,-0.408 -1.279,-1.013c-1.287,-5.419 -5.94,-5.571 -5.987,-5.572c-0.728,-0.014 -1.307,-0.616 -1.292,-1.343c0.014,-0.727 0.624,-1.31 1.343,-1.292c2.327,0.044 7.098,1.69 8.5,7.598c0.168,0.707 -0.269,1.417 -0.977,1.585c-0.104,0.025 -0.207,0.037 -0.308,0.037z" fill="url(#SVGID_3_)"/>
  <path id="svg_110" d="m53.941,27.199c-0.729,0 -1.363,-0.538 -1.466,-1.281c-1.257,-9.132 -10.577,-10.354 -10.671,-10.364c-0.813,-0.098 -1.395,-0.834 -1.298,-1.647c0.099,-0.813 0.837,-1.392 1.648,-1.294c0.117,0.014 11.692,1.53 13.257,12.904c0.112,0.811 -0.455,1.559 -1.266,1.67c-0.069,0.008 -0.136,0.012 -0.204,0.012z" fill="url(#SVGID_4_)"/>
 </g>
</svg>