<svg width="67" height="67" xmlns="http://www.w3.org/2000/svg">
 <g>
 <title>BitBucket</title>
  <rect height="67" width="67" fill="#154586" id="svg_18"/>
  <path d="m43.641,52.991c-0.004,0 -0.01,0 -0.016,0h-6.253c-0.119,0 -0.231,-0.05 -0.312,-0.14c-0.08,-0.086 -0.119,-0.203 -0.108,-0.32c0.006,-0.047 0.36,-4.655 -5.275,-9.772c-12.622,-10.798 -12.074,-17.984 -12.045,-18.284c0.014,-0.13 0.084,-0.245 0.195,-0.315c0.11,-0.067 0.245,-0.083 0.368,-0.039c0.042,0.016 4.197,1.536 6.108,1.944c0.135,0.029 0.248,0.123 0.302,0.25c0.026,0.066 2.773,6.544 7.573,9.408h0.043c4.805,-2.867 7.545,-9.342 7.573,-9.408c0.052,-0.127 0.164,-0.22 0.3,-0.25c1.91,-0.408 6.066,-1.928 6.106,-1.944c0.123,-0.044 0.261,-0.029 0.368,0.039c0.111,0.07 0.183,0.186 0.197,0.315c0.024,0.265 0.512,6.548 -9.709,16.188c1.01,1.379 4.922,7.014 4.987,11.789c0.013,0.037 0.019,0.08 0.019,0.12c-0.001,0.231 -0.189,0.419 -0.421,0.419z" fill="#FFFFFF" id="svg_20"/>
  <path d="m30.647,52.991h-6.251c-0.231,0 -0.419,-0.188 -0.419,-0.421c0,-3.773 2.617,-8.355 3.741,-10.153c0.065,-0.103 0.17,-0.172 0.288,-0.19c0.118,-0.024 0.242,0.015 0.335,0.088c3.258,2.682 4.433,4.213 4.481,4.275c0.109,0.145 0.114,0.342 0.01,0.491c-1.99,2.89 -1.769,5.421 -1.766,5.446c0.011,0.119 -0.028,0.238 -0.108,0.322c-0.08,0.092 -0.192,0.142 -0.311,0.142z" fill="#FFFFFF" id="svg_21"/>
  <path d="m34.273,32.371h-0.026c-0.136,0 -0.259,-0.065 -0.338,-0.169c-2.495,-1.936 -3.394,-5.075 -3.431,-5.209c-0.033,-0.12 -0.011,-0.252 0.062,-0.355c0.073,-0.103 0.189,-0.167 0.315,-0.176c0.015,0 1.55,-0.1 3.542,-0.1c1.17,0 2.27,0.033 3.268,0.1c0.127,0.008 0.242,0.073 0.314,0.176c0.073,0.104 0.097,0.234 0.062,0.355c-0.039,0.136 -0.941,3.29 -3.452,5.226c-0.077,0.092 -0.193,0.152 -0.316,0.152z" fill="#FFFFFF" id="svg_22"/>
  <path d="m33.638,23.448c-7.137,0 -13.73,-2.562 -19.599,-7.612c-0.334,-0.288 -0.389,-0.785 -0.126,-1.139c0.263,-0.354 0.756,-0.443 1.128,-0.206c0.073,0.047 7.535,4.736 19.113,4.736c6.586,0 13.25,-1.496 19.807,-4.444c0.393,-0.174 0.844,-0.031 1.064,0.332c0.22,0.364 0.134,0.836 -0.201,1.096c-0.379,0.296 -9.386,7.237 -21.186,7.237z" fill="#FFFFFF" id="svg_23"/>
 </g>
</svg>