<svg width="67" height="67" xmlns="http://www.w3.org/2000/svg">
 <g>
  <title>Skitch</title>
  <rect id="svg_94" height="66.991" width="66.991" fill="#DF0091" y="0.005" x="0.042"/>
  <path id="svg_95" d="m41.384,18.955c1.062,0 2.147,0.211 3.239,0.696c8.3,3.689 5.165,13.095 1.106,17.153c-4.058,4.059 -6.455,10.514 -5.349,14.386c0,0 -17.155,-1.843 -21.212,-13.648c-3.417,-9.94 2.584,-13.864 6.656,-13.866c0.763,0 1.459,0.138 2.013,0.4c0,0 -1.475,2.583 0.554,4.059c0.002,0.001 5.983,-9.18 12.993,-9.18m0,-4.305c-4.741,0 -8.852,2.724 -11.806,5.49c-1.104,-0.502 -2.397,-0.768 -3.752,-0.768c-3.742,0 -7.434,1.916 -9.635,5c-1.878,2.631 -3.592,7.296 -1.092,14.569c4.891,14.229 24.01,16.441 24.823,16.528l6.354,0.685l-1.756,-6.146c-0.535,-1.873 0.854,-6.762 4.254,-10.161c3.33,-3.33 6.216,-9.257 5.15,-14.992c-0.754,-4.063 -3.438,-7.309 -7.555,-9.138c-1.59,-0.706 -3.268,-1.067 -4.985,-1.067l0,0z" fill="#FFFFFF"/>
 </g>
</svg>