<svg width="67" height="67" xmlns="http://www.w3.org/2000/svg">
 <g>
  <title>GooglePlay</title>
  <rect id="svg_58" height="66.991" width="66.991" fill="#4CABB7" x="0.003"/>
  <path id="svg_59" d="m20.845,15.493c0,0 -0.888,0.4 -0.888,1.821c0,1.422 0,33.047 0,33.047s-0.088,1.376 1.334,1.731l17.989,-17.899l-18.435,-18.7z" fill="#FFFFFF"/>
  <polygon id="svg_60" points="40.647,33.035 45.495,28.064 22.932,15.271 " fill="#FFFFFF"/>
  <path id="svg_61" d="m46.876,28.977l6.215,3.219c0,0 1.154,0.622 1.154,1.465c0,0.843 -0.666,1.466 -1.11,1.732s-6.602,3.584 -6.602,3.584l-4.6,-4.6l4.943,-5.4z" fill="#FFFFFF"/>
  <polygon id="svg_62" points="40.604,35.748 44.59,40.032 25.792,50.574 " fill="#FFFFFF"/>
 </g>
</svg>