<svg width="67" height="67" xmlns="http://www.w3.org/2000/svg">
 <g>
  <title>LinkedIn</title>
  <path fill="#007AB9" d="m49.837,48.137l0,-11.712c0,-6.274 -3.351,-9.194 -7.815,-9.194c-3.604,0 -5.22,1.982 -6.119,3.373l0,-2.894l-6.791,0c0.09,1.917 0,20.429 0,20.429l6.791,0l0,-11.41c0,-0.609 0.043,-1.22 0.224,-1.656c0.49,-1.219 1.606,-2.482 3.481,-2.482c2.459,0 3.44,1.873 3.44,4.618l0,10.929l6.789,0l0,-0.001zm-27.878,-23.215c2.367,0 3.842,-1.569 3.842,-3.531c-0.044,-2.003 -1.475,-3.528 -3.797,-3.528c-2.322,0 -3.841,1.525 -3.841,3.528c0,1.962 1.474,3.531 3.753,3.531l0.043,0zm3.395,23.215l0,-20.427l-6.789,0l0,20.427l6.789,0l0,0zm-25.354,-48.137l67,0l0,67l-67,0l0,-67z" id="svg_1"/>
 </g>
</svg>