<svg width="67" height="67" xmlns="http://www.w3.org/2000/svg">
 <g>
  <title>Apple</title>
  <rect id="svg_12" height="67" width="67" fill="#222222"/>
  <path id="svg_13" d="m48.108,26.147c0,0 -3.788,-5.585 -11.316,-2.915c-3.107,1.021 -4.758,0.632 -6.699,-0.097c-1.944,-0.729 -6.025,-1.894 -10.393,3.205c-4.37,5.101 -1.553,14.084 -0.534,16.414s5.147,11.85 11.801,8.353c5.68,-3.059 8.401,4.372 13.691,-1.555c0,0 3.205,-3.689 4.47,-7.915c0,0 -5.148,-2.233 -5.148,-8.158c0.002,-5.39 4.128,-7.332 4.128,-7.332z" fill="#FFFFFF"/>
  <path id="svg_14" d="m41.018,12.987c0,0 -7.718,0.486 -7.818,8.984c-0.001,-0.001 7.671,0.048 7.818,-8.984z" fill="#FFFFFF"/>
 </g>
</svg>