<svg width="67" height="67" xmlns="http://www.w3.org/2000/svg">
 <g>
  <title>Windows</title>
  <rect id="svg_110" height="66.991" width="66.99" fill="#03AEDA" y="0.005" x="0.005"/>
  <path id="svg_111" d="m37.368,15.598c0,0 -4.782,-6.319 -16.448,-1.165l-4.113,14.877c0,0 9.85,-4.181 16.353,1.068l4.208,-14.78z" fill="#FFFFFF"/>
  <path id="svg_112" d="m39.854,17.056c0,0 5.545,6.126 16.161,1.071l-4.117,14.779c0,0 -9.654,4.763 -16.348,-1.071l4.304,-14.779z" fill="#FFFFFF"/>
  <path id="svg_113" d="m16.235,32.031l-4.4,14.68c0,0 11.093,-3.888 16.354,1.263l4.206,-14.778c-0.001,0 -4.78,-5.54 -16.16,-1.165z" fill="#FFFFFF"/>
  <path id="svg_114" d="m34.688,34.948c0,0 6.982,5.539 16.354,0.97l-4.113,14.683c0,0 -7.27,5.543 -16.447,-0.976l4.206,-14.677z" fill="#FFFFFF"/>
 </g>
</svg>