<svg width="67" height="67" xmlns="http://www.w3.org/2000/svg" xmlns:xlink="http://www.w3.org/1999/xlink">
 <g>
  <title>Foursquare</title>
  <rect id="svg_30" height="66.991" width="66.99" fill="#50BEEF"/>
  <g id="svg_31">
   <g id="svg_32">
    <defs>
     <path d="m67.01,58.619c0,4.622 -3.751,8.372 -8.372,8.372h-50.237c-4.625,0 -8.374,-3.751 -8.374,-8.372v-50.237c0,-4.623 3.749,-8.374 8.374,-8.374h50.236c4.623,0 8.372,3.75 8.372,8.374v50.237l0.001,0z" id="SVGID_1_"/>
    </defs>
    <clipPath id="SVGID_2_">
     <use id="svg_33" xlink:href="#SVGID_1_"/>
    </clipPath>
    <linearGradient gradientTransform="matrix(20.8333 0 0 -20.8333 5945.6621 9255.6719)" y2="10.57523" x2="-7.45855" y1="10.62276" x1="-7.45855" id="SVGID_3_">
     <stop stop-color="#3186C2" offset="0"/>
     <stop stop-color="#1D649C" offset="1"/>
    </linearGradient>
    <path id="svg_34" d="m33.897,54.876c-0.001,0 -0.002,0 -0.002,0c-0.959,-0.001 -1.874,-0.396 -2.534,-1.091l-16.949,-17.88c-0.65,-0.687 -0.994,-1.605 -0.956,-2.55c0.039,-0.944 0.46,-1.832 1.165,-2.461l16.948,-15.144c1.417,-1.266 3.585,-1.168 4.886,0.224l15.552,16.688c1.26,1.354 1.25,3.453 -0.026,4.792l-15.551,16.338c-0.66,0.692 -1.576,1.084 -2.533,1.084z" fill="url(#SVGID_3_)" clip-path="url(#SVGID_2_)" opacity="0.7"/>
   </g>
   <g id="svg_35">
    <defs>
     <path d="m67.01,58.619c0,4.622 -3.751,8.372 -8.372,8.372h-50.237c-4.625,0 -8.374,-3.751 -8.374,-8.372v-50.237c0,-4.623 3.749,-8.374 8.374,-8.374h50.236c4.623,0 8.372,3.75 8.372,8.374v50.237l0.001,0z" id="SVGID_4_"/>
    </defs>
    <clipPath id="SVGID_5_">
     <use id="svg_36" xlink:href="#SVGID_4_"/>
    </clipPath>
    <path id="svg_37" d="m58.71,-0.427l-25.191,34.334l-3.668,-5.941c0,0 -8.183,1.807 -8.446,7.981l12.058,9.842l33.547,-28.132c0,0 -0.69901,-18.085 0,-18.085s-8.3,0.001 -8.3,0.001z" fill="#FFFFFF" clip-path="url(#SVGID_5_)"/>
   </g>
   <g id="svg_38">
    <defs>
     <path d="m67.01,58.619c0,4.622 -3.751,8.372 -8.372,8.372h-50.237c-4.625,0 -8.374,-3.751 -8.374,-8.372v-50.237c0,-4.623 3.749,-8.374 8.374,-8.374h50.236c4.623,0 8.372,3.75 8.372,8.374v50.237l0.001,0z" id="SVGID_6_"/>
    </defs>
    <clipPath id="SVGID_7_">
     <use id="svg_39" xlink:href="#SVGID_6_"/>
    </clipPath>
    <linearGradient gradientTransform="matrix(20.8333 0 0 -20.8333 5945.6621 9255.6719)" y2="18.85212" x2="-12.80213" y1="18.90014" x1="-12.80213" id="SVGID_8_">
     <stop stop-color="#D5EA8D" offset="0"/>
     <stop stop-color="#A5C82D" offset="1"/>
    </linearGradient>
    <circle id="svg_40" r="11.388" cy="24.559" cx="18.464" fill="url(#SVGID_8_)" clip-path="url(#SVGID_7_)"/>
   </g>
   <g id="svg_41">
    <defs>
     <path d="m67.01,58.619c0,4.622 -3.751,8.372 -8.372,8.372h-50.237c-4.625,0 -8.374,-3.751 -8.374,-8.372v-50.237c0,-4.623 3.749,-8.374 8.374,-8.374h50.236c4.623,0 8.372,3.75 8.372,8.374v50.237l0.001,0z" id="SVGID_9_"/>
    </defs>
    <clipPath id="SVGID_10_">
     <use id="svg_42" xlink:href="#SVGID_9_"/>
    </clipPath>
    <path id="svg_43" d="m33.52,46.663c-0.235,0 -0.47,-0.079 -0.664,-0.236l-10.852,-8.872c-1.132,0.305 -2.301,0.457 -3.483,0.457c-7.372,0 -13.367,-5.996 -13.367,-13.365c0,-7.369 5.998,-13.366 13.367,-13.366s13.366,5.997 13.366,13.366c0,1.28 -0.18,2.542 -0.537,3.758l2.212,3.843l24.227,-33.206c0.342,-0.468 0.995,-0.57 1.467,-0.229c0.466,0.341 0.569,0.997 0.228,1.465l-25.177,34.51c-0.209,0.285 -0.536,0.453 -0.903,0.429c-0.354,-0.02 -0.676,-0.215 -0.852,-0.523l-3.204,-5.562c-0.105,-0.183 -0.153,-0.393 -0.138,-0.604l0.021,-0.277c0.005,-0.081 0.021,-0.159 0.044,-0.234c0.341,-1.086 0.513,-2.221 0.513,-3.372c0,-6.215 -5.057,-11.27 -11.27,-11.27c-6.214,0 -11.27,5.057 -11.27,11.27c0,6.214 5.056,11.27 11.27,11.27c1.073,0 2.133,-0.149 3.155,-0.446c0.375,-0.218 0.84,-0.206 1.178,0.071l10.66,8.714l33.27,-27.601c0.442,-0.369 0.662,0.059 1.03201,0.506c0.37,0.446 0.308,1.107 -0.139,1.477l-33.49001,27.782c-0.189,0.164 -0.427,0.245 -0.664,0.245z" fill="#236EB4" clip-path="url(#SVGID_10_)"/>
   </g>
  </g>
  <rect id="svg_44" height="16.516" width="7.482" fill="#FFFFFF" y="-0.038" x="59.527"/>
 </g>
</svg>