<svg width="67" height="67" xmlns="http://www.w3.org/2000/svg">
 <g>
  <title>Dribble</title>
  <rect id="svg_163" height="67" width="67" fill="#EC4A89"/>
  <path id="svg_164" d="m52.433,29.459c0.258,1.258 0.391,2.555 0.391,3.853c0,1.295 -0.132,2.589 -0.391,3.851c-0.253,1.231 -0.628,2.44 -1.116,3.597c-0.478,1.136 -1.07,2.229 -1.765,3.248c-0.682,1.014 -1.469,1.965 -2.334,2.831c-0.866,0.864 -1.819,1.651 -2.83,2.336c-1.023,0.691 -2.117,1.284 -3.251,1.765c-1.155,0.488 -2.365,0.861 -3.595,1.113c-1.261,0.259 -2.559,0.394 -3.854,0.394c-1.297,0 -2.594,-0.133 -3.854,-0.394c-1.23,-0.252 -2.441,-0.626 -3.596,-1.113c-1.134,-0.48 -2.229,-1.073 -3.252,-1.765c-1.011,-0.685 -1.964,-1.471 -2.828,-2.336c-0.866,-0.866 -1.652,-1.817 -2.336,-2.831c-0.69,-1.02 -1.284,-2.114 -1.765,-3.248c-0.489,-1.156 -0.864,-2.365 -1.118,-3.597c-0.256,-1.262 -0.386,-2.556 -0.386,-3.851c0,-1.298 0.13,-2.594 0.387,-3.853c0.254,-1.232 0.628,-2.442 1.117,-3.596c0.48,-1.138 1.074,-2.23 1.765,-3.251c0.683,-1.015 1.47,-1.964 2.336,-2.832c0.864,-0.862 1.817,-1.646 2.828,-2.333c1.023,-0.692 2.118,-1.287 3.252,-1.768c1.155,-0.489 2.365,-0.863 3.596,-1.114c1.26,-0.257 2.556,-0.389 3.854,-0.389c1.295,0 2.593,0.131 3.854,0.389c1.229,0.251 2.439,0.626 3.595,1.114c1.135,0.481 2.228,1.075 3.251,1.768c1.011,0.686 1.966,1.47 2.83,2.333c0.863,0.868 1.652,1.817 2.334,2.832c0.694,1.021 1.287,2.115 1.765,3.251c0.49,1.154 0.863,2.364 1.116,3.596z" fill="#EC4A89"/>
  <path id="svg_165" d="m46.307,22.931c-0.029,0.044 -2.651,3.83 -9.103,6.465c0.38,0.78 0.747,1.572 1.086,2.37c0.121,0.286 0.239,0.566 0.354,0.847c5.614,-0.707 11.143,0.482 11.38,0.53c-0.039,-3.874 -1.425,-7.428 -3.717,-10.212z" fill="#FFFFFF"/>
  <path id="svg_166" d="m39.639,35.19c2.144,5.89 3.015,10.688 3.182,11.672c3.668,-2.476 6.274,-6.407 7.001,-10.962c-0.338,-0.108 -4.908,-1.555 -10.183,-0.71z" fill="#FFFFFF"/>
  <path id="svg_167" d="m40.067,48.354c-0.242,-1.426 -1.19,-6.432 -3.49,-12.406c-0.036,0.011 -0.072,0.022 -0.109,0.035c-9.64,3.361 -12.789,10.134 -12.822,10.208c2.773,2.158 6.253,3.46 10.043,3.46c2.263,-0.001 4.417,-0.462 6.378,-1.297z" fill="#FFFFFF"/>
  <path id="svg_168" d="m35.946,26.961c6.165,-2.31 8.492,-5.853 8.532,-5.914c-2.876,-2.537 -6.653,-4.074 -10.79,-4.074c-1.328,0 -2.616,0.161 -3.85,0.458c0.245,0.327 3.314,4.399 6.108,9.53z" fill="#FFFFFF"/>
  <path id="svg_169" d="m35.463,33.241c-0.41,-0.931 -0.857,-1.86 -1.325,-2.777c-8.414,2.519 -16.486,2.338 -16.776,2.326c-0.004,0.176 -0.013,0.346 -0.013,0.522c0,4.198 1.583,8.023 4.187,10.918c-0.006,-0.01 4.466,-7.942 13.283,-10.794c0.212,-0.071 0.43,-0.135 0.644,-0.195z" fill="#FFFFFF"/>
  <path id="svg_170" d="m32.784,27.947c-2.829,-5.025 -5.85,-9.125 -6.068,-9.417c-4.557,2.151 -7.957,6.351 -9.018,11.412c0.431,0.004 7.24,0.09 15.086,-1.995z" fill="#FFFFFF"/>
 </g>
</svg>