<svg width="67" height="67" xmlns="http://www.w3.org/2000/svg">
 <g>
  <title>Reddit</title>
  <rect height="67" width="67" fill="#FF4500" id="svg_163"/>
  <g id="g64">
   <path d="m49.68062,10.38269l-11.571,-2.72601l-4.25401,13.44501" stroke-linejoin="round" stroke-linecap="round" stroke-width="2" stroke="#FFFFFF" fill="none" id="path66"/>
  </g>
  <g id="g80">
   <path d="m58.96709,11.31772c0,2.51999 -2.043,4.561 -4.56,4.561c-2.522,0 -4.563,-2.04102 -4.563,-4.561s2.041,-4.561 4.563,-4.561c2.517,0 4.56,2.04102 4.56,4.561z" stroke-width="2" stroke="#FFFFFF" fill="none" id="path82"/>
  </g>
  <g id="g96">
   <path d="m59.7236,38.6525c0,9.44601 -11.73201,17.104 -26.21201,17.104c-14.47499,0 -26.20898,-7.65701 -26.20898,-17.104c0,-9.44699 11.73399,-17.104 26.20898,-17.104c14.48001,-0.00098 26.21201,7.65701 26.21201,17.104z" stroke-width="2" stroke="#FFFFFF" fill="none" id="path98"/>
  </g>
  <g id="g52">
   <path d="m15.7598,30.69382c0,3.19699 -2.592,5.785 -5.789,5.785c-3.196,0 -5.78499,-2.58801 -5.78499,-5.785c0,-3.198 2.58899,-5.79001 5.78499,-5.79001c3.19701,0 5.789,2.59201 5.789,5.79001z" stroke-width="2" stroke="#FFFFFF" fill="#FF4500" id="path54"/>
  </g>
  <g id="g60">
   <path d="m63.09431,30.69382c0,3.19699 -2.592,5.785 -5.789,5.785c-3.194,0 -5.784,-2.58801 -5.784,-5.785c0,-3.198 2.59,-5.79001 5.784,-5.79001c3.198,0 5.789,2.59201 5.789,5.79001z" stroke-width="2" stroke="#FFFFFF" fill="#FF4500" id="path62"/>
  </g>
  <g id="g160">
   <path d="m27.47839,35.31461c0,1.689 -1.37399,3.06201 -3.06299,3.06201c-1.69501,0 -3.065,-1.37302 -3.065,-3.06201c0,-1.69501 1.371,-3.065 3.065,-3.065c1.68898,-0.00098 3.06299,1.37 3.06299,3.065z" stroke-width="2" stroke="#FFFFFF" fill="none" id="path162"/>
  </g>
  <g id="g168">
   <path d="m45.94301,35.31461c0,1.689 -1.371,3.06201 -3.062,3.06201c-1.68901,0 -3.06201,-1.37302 -3.06201,-3.06201c0,-1.69501 1.37201,-3.065 3.06201,-3.065c1.69099,-0.00098 3.062,1.37 3.062,3.065z" stroke-width="2" stroke="#FFFFFF" fill="none" id="path170"/>
  </g>
  <g id="g172">
   <path d="m24.58742,46.52429c2.282,2.284 5.966,2.72501 9.01901,2.72501" stroke-linecap="round" stroke-width="2" stroke="#FFFFFF" fill="none" id="path174"/>
  </g>
  <g id="g176">
   <path d="m42.69341,46.52429c-2.28499,2.284 -5.965,2.72501 -9.021,2.72501" stroke-linecap="round" stroke-width="2" stroke="#FFFFFF" fill="none" id="path178"/>
  </g>
  <g id="g156">
   <path d="m27.47839,35.31461c0,1.689 -1.37399,3.06201 -3.06299,3.06201c-1.69501,0 -3.065,-1.37302 -3.065,-3.06201c0,-1.69501 1.371,-3.065 3.065,-3.065c1.68898,-0.00098 3.06299,1.37 3.06299,3.065" stroke-width="2" stroke="#FFFFFF" fill="#FF4500" id="path158"/>
  </g>
  <g id="g164">
   <path d="m45.94301,35.31461c0,1.689 -1.371,3.06201 -3.062,3.06201c-1.68901,0 -3.06201,-1.37302 -3.06201,-3.06201c0,-1.69501 1.37201,-3.065 3.06201,-3.065c1.69099,-0.00098 3.062,1.37 3.062,3.065" stroke-width="2" stroke="#FFFFFF" fill="#FF4500" id="path166"/>
  </g>
 </g>
</svg>