<svg width="67" height="67" xmlns="http://www.w3.org/2000/svg">
 <g>
  <title>RSS</title>
  <rect id="svg_10" height="67" width="67" fill="#E19126"/>
  <g id="svg_11">
   <path id="svg_12" d="m46.355,52.495h7.097c0,-20.338 -16.547,-36.895 -36.882,-36.895v7.074c16.42,0 29.785,13.379 29.785,29.821z" fill="#FFFFFF"/>
   <path id="svg_13" d="m33.817,52.502l0,0h7.104c0,-13.436 -10.929,-24.361 -24.355,-24.361v7.071c4.605,0 8.937,1.801 12.195,5.062c3.26,3.255 5.056,7.605 5.056,12.228z" fill="#FFFFFF"/>
   <path id="svg_14" d="m21.479,52.51c2.721,0 4.918,-2.187 4.918,-4.896c0,-2.692 -2.199,-4.902 -4.918,-4.902c-2.708,0 -4.911,2.21 -4.911,4.902c-0.001,2.709 2.202,4.896 4.911,4.896z" fill="#FFFFFF"/>
  </g>
 </g>
</svg>