<svg width="67" height="67" xmlns="http://www.w3.org/2000/svg">
 <g>
  <title>Twitter</title>
  <rect fill="#598DCA" width="67" height="67" id="svg_1"/>
  <path fill="#FFFFFF" d="m39.113,16.063c-4.009,1.458 -6.542,5.221 -6.255,9.339l0.097,1.589l-1.604,-0.194c-5.837,-0.746 -10.938,-3.274 -15.27,-7.525l-2.118,-2.107l-0.544,1.557c-1.154,3.472 -0.417,7.136 1.989,9.601c1.283,1.362 0.993,1.557 -1.219,0.745c-0.771,-0.258 -1.444,-0.453 -1.508,-0.356c-0.224,0.228 0.544,3.179 1.154,4.346c0.835,1.622 2.534,3.213 4.396,4.152l1.573,0.746l-1.861,0.031c-1.796,0 -1.86,0.033 -1.667,0.715c0.641,2.109 3.175,4.347 5.998,5.32l1.988,0.68l-1.731,1.038c-2.566,1.495 -5.582,2.332 -8.598,2.398c-1.445,0.033 -2.631,0.163 -2.631,0.26c0,0.325 3.915,2.139 6.191,2.854c6.832,2.107 14.949,1.199 21.044,-2.399c4.331,-2.562 8.661,-7.654 10.682,-12.584c1.092,-2.626 2.183,-7.429 2.183,-9.729c0,-1.493 0.096,-1.688 1.894,-3.471c1.058,-1.039 2.051,-2.172 2.245,-2.497c0.32,-0.617 0.288,-0.617 -1.349,-0.067c-2.727,0.975 -3.113,0.845 -1.764,-0.614c0.996,-1.038 2.184,-2.92 2.184,-3.472c0,-0.095 -0.48,0.064 -1.026,0.356c-0.577,0.325 -1.863,0.811 -2.826,1.102l-1.73,0.553l-1.571,-1.072c-0.867,-0.583 -2.083,-1.231 -2.727,-1.426c-1.639,-0.453 -4.142,-0.389 -5.619,0.131z" id="svg_2"/>
 </g>
</svg>