<svg width="67" height="67" xmlns="http://www.w3.org/2000/svg">
 <g>
  <title>Behance</title>
  <rect id="svg_14" height="67" width="67" fill="#5BCEED"/>
  <g id="svg_15">
   <g id="svg_16">
    <path id="svg_17" d="m30.574,33.593c0.83,-0.425 1.458,-0.894 1.883,-1.408c0.762,-0.916 1.145,-2.128 1.145,-3.637c0,-1.463 -0.377,-2.719 -1.133,-3.771c-1.256,-1.71 -3.391,-2.587 -6.402,-2.631h-11.94v24.705h11.131c1.256,0 2.418,-0.113 3.491,-0.336c1.072,-0.224 2.002,-0.638 2.792,-1.242c0.699,-0.523 1.282,-1.173 1.749,-1.943c0.732,-1.161 1.1,-2.475 1.1,-3.939c0,-1.419 -0.32,-2.625 -0.962,-3.619c-0.644,-0.994 -1.595,-1.721 -2.854,-2.179zm-11.519,-7.156h5.374c1.184,0 2.157,0.128 2.92,0.386c0.884,0.369 1.327,1.129 1.327,2.279c0,1.039 -0.335,1.763 -1.004,2.171c-0.67,0.408 -1.54,0.611 -2.612,0.611h-6.004v-5.447l-0.001,0zm8.498,15.686c-0.597,0.292 -1.43,0.436 -2.5,0.436h-5.998v-6.586h6.081c1.06,0.011 1.884,0.15 2.469,0.42c1.049,0.48 1.574,1.363 1.574,2.647c-0.001,1.52 -0.544,2.549 -1.626,3.083zm27.426,-6.692c-0.221,-1.433 -0.705,-2.691 -1.453,-3.776c-0.833,-1.231 -1.884,-2.132 -3.158,-2.703c-1.275,-0.571 -2.706,-0.857 -4.298,-0.857c-2.677,0 -4.854,0.844 -6.531,2.533c-1.678,1.688 -2.518,4.116 -2.518,7.279c0,3.377 0.929,5.815 2.788,7.314s4.005,2.248 6.435,2.248c2.945,0 5.236,-0.89 6.874,-2.665c1.053,-1.118 1.642,-2.218 1.77,-3.301h-4.878c-0.283,0.535 -0.609,0.955 -0.98,1.254c-0.682,0.56 -1.564,0.841 -2.653,0.841c-1.024,0 -1.903,-0.229 -2.635,-0.688c-1.198,-0.738 -1.835,-2.023 -1.909,-3.855h13.307c0.021,-1.576 -0.031,-2.784 -0.161,-3.624zm-13.028,0.475c0.174,-1.189 0.598,-2.132 1.272,-2.829c0.674,-0.696 1.625,-1.044 2.852,-1.044c1.126,0 2.069,0.328 2.831,0.985c0.762,0.656 1.187,1.62 1.272,2.887h-8.227l0,0.001z" fill="#FFFFFF"/>
   </g>
  </g>
  <path id="svg_18" d="m38.668,22.346h14.663v2.378h-14.663v-2.378l0,0z" fill="#FFFFFF"/>
 </g>
</svg>