<svg width="67" height="67" xmlns="http://www.w3.org/2000/svg">
 <g>
  <title>Pinterest</title>
  <rect id="svg_81" height="66.991" width="66.992" fill="#F03032" y="0.005" x="0.004"/>
  <g id="krecRE_1_">
   <g id="svg_82">
    <g id="svg_83">
     <path id="svg_84" d="m24.479,54.611c-10.485,-4.247 -15.807,-17.144 -11.634,-27.93c4.351,-11.247 16.874,-16.975 28.149,-12.879c11.459,4.165 17.307,16.454 13.355,28.072c-3.683,10.835 -16.157,17.268 -26.642,13.886c1.153,-3.494 2.306,-6.988 3.441,-10.427c3.368,3.071 7.838,3.176 11.748,0.18c4.835,-3.706 6.984,-12.312 4.401,-17.845c-2.078,-4.455 -5.717,-6.963 -10.489,-7.586c-6.298,-0.824 -11.864,0.765 -15.766,6.117c-2.809,3.854 -3.395,8.124 -1.428,12.588c0.625,1.417 1.685,2.474 3.079,3.177c0.816,0.415 1.327,0.229 1.615,-0.688c0.387,-1.235 0.367,-2.239 -0.428,-3.452c-1.65,-2.517 -1.191,-5.277 -0.096,-7.893c2.59,-6.189 11.5,-8.375 16.485,-4.098c1.639,1.407 2.458,3.243 2.598,5.332c0.21,3.165 -0.281,6.228 -1.805,9.06c-0.905,1.681 -2.148,2.997 -4.084,3.467c-2.939,0.712 -5.124,-1.418 -4.409,-4.351c0.479,-1.97 1.092,-3.905 1.615,-5.864c0.136,-0.504 0.207,-1.035 0.229,-1.556c0.065,-1.505 -0.641,-2.776 -1.767,-3.267c-1.212,-0.529 -2.8,-0.183 -3.82,0.931c-1.862,2.035 -1.954,4.43 -1.41,6.986c0.18,0.837 0.205,1.777 0.025,2.609c-0.836,3.894 -1.811,7.756 -2.643,11.65c-0.26,1.192 -0.216,2.449 -0.319,3.781z" fill="#FFFFFF"/>
    </g>
   </g>
  </g>
 </g>
</svg>