<svg width="67" height="67" xmlns="http://www.w3.org/2000/svg">
 <g>
  <title>Quora</title>
  <rect id="svg_84" height="66.991" width="66.992" fill="#A8190B" y="0.005" x="0.044"/>
  <path id="svg_85" d="m43.452,48.018c0.81,2.126 2.708,3.163 4.999,3.809c0.201,1.068 0.51,2.029 0.477,3.331c-5.184,1.651 -9.512,-1.133 -10.947,-4.758c-15.228,2.851 -24.57,-6.617 -23.562,-20.708c0.702,-9.784 8.433,-18.047 18.803,-18.326c12.734,-0.342 19.514,8.291 19.514,19.516c-0.001,7.68 -3.832,14.025 -9.284,17.136zm-10.233,-31.653c-12.929,0.666 -14.369,32.587 2.617,29.511c-0.356,-2.263 -2.409,-2.829 -4.521,-3.333c-0.308,-0.881 -0.388,-1.992 -0.477,-3.094c4.455,-1.957 8.257,1.596 10.232,2.857c4.121,-8.509 3.854,-26.545 -7.851,-25.941z" fill="#FFFFFF"/>
 </g>
</svg>