<svg width="67" height="67" xmlns="http://www.w3.org/2000/svg">
 <g>
  <title>AboutMe</title>
  <rect height="67" width="67" fill="#0E2F3C" id="svg_1"/>
  <path d="m14.878,28.039c1.436,-0.664 2.722,-1.423 4.107,-1.857c2.327,-0.73 4.292,0.012 5.736,1.976c0.469,0.639 0.726,0.562 1.28,0.036c1.949,-1.849 4.231,-2.728 6.945,-1.979c1.867,0.516 3.035,1.848 3.064,3.807c0.069,4.333 0.055,8.669 0.014,13.003c-0.006,0.271 -0.508,0.744 -0.808,0.771c-2.69,0.231 -2.691,0.208 -2.689,-2.514c0,-2.747 0.009,-5.492 -0.002,-8.239c-0.008,-2.02 -0.734,-3.287 -2.043,-3.638c-1.587,-0.426 -4.065,0.556 -4.819,1.99c-0.225,0.429 -0.271,0.987 -0.275,1.489c-0.024,3.175 -0.045,6.351 0.003,9.527c0.015,1.03 -0.264,1.45 -1.37,1.432c-2.315,-0.038 -2.316,0.013 -2.316,-2.292c0,-2.961 0.003,-5.923 -0.003,-8.885c-0.005,-2.134 -1.032,-3.321 -2.855,-3.331c-2.306,-0.012 -4.093,1.495 -4.098,3.479c-0.008,3.219 -0.036,6.439 0.014,9.657c0.017,0.986 -0.259,1.366 -1.293,1.369c-2.527,0.002 -2.527,0.047 -2.527,-2.48c0,-4.551 0.029,-9.1 -0.028,-13.648c-0.014,-1.049 0.329,-1.423 1.323,-1.275c0.042,0.007 0.085,0 0.128,0c1.189,0.053 2.765,-0.521 2.512,1.602z" fill="#FFFFFF" id="svg_2"/>
  <path d="m49.805,36.438c-1.802,0 -3.604,-0.011 -5.406,0.002c-1.364,0.011 -1.578,0.369 -1.012,1.638c1.114,2.497 3.934,3.851 6.643,3.098c0.934,-0.264 1.854,-0.683 2.668,-1.208c0.755,-0.492 1.091,-0.3 1.533,0.357c1.074,1.604 1.084,1.729 -0.614,2.686c-4.005,2.248 -10.817,1.994 -13.425,-3.113c-2.687,-5.269 -0.586,-13.034 6.793,-13.909c4.502,-0.534 8.438,2.458 9.156,6.95c0.066,0.424 0.115,0.849 0.172,1.273c0.299,2.229 0.299,2.229 -2.004,2.23c-1.502,-0.004 -3.004,-0.004 -4.504,-0.004l0,0zm-2.003,-2.67c1.241,0 2.479,0.016 3.722,-0.004c1.211,-0.019 1.424,-0.336 1.06,-1.494c-0.644,-2.038 -2.649,-3.34 -4.991,-3.239c-2.082,0.089 -3.957,1.639 -4.476,3.608c-0.218,0.822 0.056,1.127 0.841,1.127c1.278,-0.003 2.562,-0.002 3.844,0.002z" fill="#FFFFFF" id="svg_3"/>
 </g>
</svg>