<svg width="67" height="67" xmlns="http://www.w3.org/2000/svg">
 <g>
  <title>Instagram</title>
  <rect id="svg_1" height="67" width="67" fill="#517FA6" x="0"/>
  <g id="svg_2">
   <path id="svg_3" d="m49.46,53.449c0.207,-0.035 0.418,-0.064 0.621,-0.109c1.631,-0.346 2.961,-1.705 3.281,-3.344c0.033,-0.178 0.059,-0.357 0.088,-0.535v-31.927c-0.027,-0.174 -0.053,-0.351 -0.086,-0.524c-0.35,-1.787 -1.826,-3.176 -3.635,-3.423c-0.076,-0.01 -0.146,-0.027 -0.221,-0.039h-32.016c-0.192,0.034 -0.388,0.062 -0.578,0.104c-1.768,0.402 -3.076,1.826 -3.328,3.617c-0.01,0.076 -0.026,0.149 -0.038,0.224v32.014c0.036,0.203 0.065,0.408 0.111,0.609c0.391,1.729 1.866,3.07 3.623,3.295c0.083,0.01 0.17,0.027 0.255,0.039h31.923v-0.001l0,0z" fill="#FFFFFF"/>
   <path id="svg_4" d="m45.624,23.791v-0.008c0.656,0 1.312,0.013 1.973,-0.003c0.844,-0.022 1.531,-0.746 1.531,-1.592c0,-1.26 0,-2.521 0,-3.781c0,-0.904 -0.715,-1.622 -1.615,-1.623c-1.258,0 -2.514,-0.002 -3.771,0c-0.898,0.001 -1.617,0.723 -1.617,1.625c0,1.249 -0.004,2.498 0.006,3.747c0,0.188 0.035,0.381 0.094,0.557c0.229,0.665 0.836,1.073 1.582,1.077c0.604,0.002 1.212,0.001 1.817,0.001z" fill="#517FA6"/>
   <path id="svg_5" d="m33.499,25.411c-4.426,-0.002 -8.023,3.559 -8.085,7.964c-0.064,4.523 3.558,8.111 7.899,8.201c4.519,0.098 8.171,-3.512 8.269,-7.902c0.095,-4.525 -3.556,-8.265 -8.083,-8.263z" fill="#517FA6"/>
   <path id="svg_6" d="m17.864,29.726v0.107c0,5.905 -0.001,11.811 0,17.715c0,0.85 0.735,1.58 1.585,1.58c9.364,0 18.728,0 28.091,0c0.857,0 1.592,-0.73 1.592,-1.586c0,-5.898 0,-11.797 0,-17.693v-0.123h-3.811c0.537,1.717 0.703,3.467 0.492,5.249c-0.211,1.783 -0.787,3.443 -1.723,4.975c-0.936,1.535 -2.148,2.807 -3.635,3.816c-3.848,2.623 -8.918,2.855 -13.005,0.561c-2.065,-1.158 -3.687,-2.773 -4.819,-4.855c-1.686,-3.105 -1.955,-6.363 -0.966,-9.745c-1.268,-0.001 -2.525,-0.001 -3.801,-0.001z" fill="#517FA6"/>
  </g>
 </g>
</svg>