<svg width="67" height="67" xmlns="http://www.w3.org/2000/svg">
 <g>
 <title>GooglePlus</title>
  <polygon id="svg_161" points="0,0 67,0 67,17.946 54.49,17.946 54.49,5.481 49.148,5.481 49.148,17.946 36.684,17.946   36.684,23.18 49.148,23.18 49.148,35.756 54.49,35.756 54.49,23.18 67,23.18 67,67 0,67 0,0 " fill="#D6492F"/>
  <path id="svg_162" d="m10.028,39.758c-4.461,0 -7.334,-0.953 -10.028,-3.192v-25.512c5.603,-4.639 11.755,-5.412 16.911,-5.508h20.773l-5.517,4.451h-6.024c2.413,2.091 6.013,5.833 6.013,12.497c0,7.297 -3.846,10.757 -7.975,14.009c-1.278,1.279 -2.751,2.664 -2.751,4.837c0,2.165 1.473,3.351 2.553,4.239l3.542,2.757c4.324,3.651 9.973,7.009 9.971,13.817c0,1.826 -0.301,2.98 -0.877,4.844l-5.881,0.003c0.021,-0.278 0.019,-0.461 0.019,-0.994c0,-5.041 -4.805,-7.695 -12.281,-13.025c-0.783,-0.102 -1.274,-0.102 -2.252,-0.102c-0.889,0 -6.196,0.199 -10.326,1.582c-1.418,0.518 -3.869,0.849 -5.898,3.604v-5.173c5.611,-2.409 11.383,-2.523 15.14,-2.776c-1.378,-1.779 -2.948,-3.651 -2.948,-6.706c0,-1.676 0.492,-2.664 0.982,-3.85c-1.083,0.098 -2.16,0.198 -3.146,0.198l0,0z" fill="#FFFFFF"/>
  <path id="svg_163" d="m3.058,19.44c0,6.605 3.47,16.38 11.925,16.38c2.456,0 4.975,-0.627 6.59,-2.469c1.844,-2.113 2.567,-4.893 2.567,-6.315c0,-7.104 -4.118,-18.152 -12.272,-18.152c-2.557,0 -5.306,1.28 -6.882,3.255c-1.671,2.073 -1.928,4.731 -1.928,7.301z" fill="#D6492F"/>
 </g>
</svg>