<svg width="67" height="67" xmlns="http://www.w3.org/2000/svg">
 <g>
  <title>Yelp</title>
  <rect id="svg_116" height="66.991" width="66.99" fill="#F03032" y="0.005" x="0.005"/>
  <g id="svg_117">
   <path id="svg_118" d="m34.249,21.076c0,2.645 -0.025,5.291 0.014,7.936c0.016,1.055 -0.242,2.041 -1.361,2.066c-0.754,0.017 -1.784,-0.425 -2.243,-1.011c-1.868,-2.385 -3.558,-4.907 -5.32,-7.375c-1.191,-1.671 -2.365,-3.357 -3.594,-5.001c-1.638,-2.191 -1.233,-3.573 1.421,-4.369c2.518,-0.755 5.054,-1.452 7.601,-2.106c2.122,-0.545 3.389,0.451 3.404,2.608c0.017,2.417 0.003,4.835 0.003,7.254c0.026,-0.002 0.051,-0.002 0.075,-0.002z" fill="#FFFFFF"/>
   <path id="svg_119" d="m15.415,37.302c0.25,-1.816 0.386,-3.309 0.68,-4.77c0.303,-1.503 1.737,-2.116 3.153,-1.536c3.084,1.263 6.223,2.409 9.261,3.77c0.74,0.332 1.419,1.234 1.705,2.028c0.361,1.001 -0.425,1.659 -1.372,1.978c-1.944,0.652 -3.889,1.293 -5.836,1.928c-1.479,0.483 -2.974,0.919 -4.446,1.432c-0.997,0.35 -2.263,-0.124 -2.5,-1.141c-0.309,-1.315 -0.472,-2.665 -0.645,-3.689z" fill="#FFFFFF"/>
   <path id="svg_120" d="m52.877,45.537c-0.29,0.576 -0.654,1.727 -1.362,2.594c-1.214,1.481 -2.593,2.842 -3.999,4.15c-0.954,0.887 -2.151,0.745 -2.84,-0.329c-1.973,-3.084 -3.835,-6.241 -5.806,-9.329c-0.574,-0.895 -0.298,-1.699 0.279,-2.195c0.538,-0.46 1.538,-0.868 2.146,-0.682c3.548,1.091 7.046,2.345 10.544,3.587c1.092,0.387 1.1,0.498 1.038,2.204z" fill="#FFFFFF"/>
   <path id="svg_121" d="m39.809,35.33c-0.406,-0.324 -1.303,-0.721 -1.621,-1.394c-0.238,-0.499 0.099,-1.477 0.486,-2.027c1.799,-2.581 3.65,-5.127 5.59,-7.605c1.835,-2.349 2.526,-2.404 4.46,-0.262c1.557,1.72 2.669,3.868 3.838,5.905c0.741,1.288 0.186,2.172 -1.286,2.578c-2.381,0.653 -4.736,1.391 -7.123,2.01c-1.262,0.327 -2.569,0.48 -4.344,0.795z" fill="#FFFFFF"/>
   <path id="svg_122" d="m34.192,49.251c0,1.779 0.014,3.56 -0.004,5.34c-0.014,1.286 -0.875,2.13 -2.141,1.908c-2.582,-0.454 -5.129,-1.017 -7.385,-2.504c-1.727,-1.14 -2.01,-2.325 -0.697,-3.828c2.115,-2.419 4.236,-4.833 6.395,-7.214c0.75,-0.831 1.567,-1.415 2.85,-0.751c0.751,0.389 0.995,0.828 0.991,1.574c-0.01,1.825 -0.003,3.65 -0.003,5.477c-0.001,-0.002 -0.004,-0.002 -0.006,-0.002z" fill="#FFFFFF"/>
  </g>
 </g>
</svg>