<svg width="67" height="67" xmlns="http://www.w3.org/2000/svg">
 <g>
  <title>TripAdvisor</title>
  <rect id="svg_98" height="66.991" width="66.991" fill="#222222" y="0.005" x="0.042"/>
  <g id="svg_99">
   <circle id="svg_100" r="5.285" cy="36.17" cx="19.343" fill="#FFFFFF"/>
   <path id="svg_101" d="m33.387,17.293c0,0 11.176,-0.906 18.875,4.984h9.211l-3.699,3.699c0,0 3.549,2.943 3.549,10.042c0,7.096 -5.285,13.74 -13.74,13.74c-8.457,0 -11.176,-4.68 -11.176,-4.68l-2.945,3.926l0,0l-2.793,-3.926c0,0 -2.717,4.68 -11.174,4.68c-8.456,0 -13.741,-6.645 -13.741,-13.74c0,-7.099 3.548,-10.042 3.548,-10.042l-3.699,-3.699h9.211c7.701,-5.89 18.875,-4.984 18.875,-4.984h-0.302l0,0zm-14.044,8.003c-6.005,0 -10.873,4.87 -10.873,10.874c0,6.004 4.868,10.871 10.873,10.871c6.005,0 10.872,-4.867 10.872,-10.871c0.001,-6.007 -4.867,-10.874 -10.872,-10.874zm28.087,0c-6.006,0 -10.873,4.87 -10.873,10.874c0,6.004 4.867,10.871 10.873,10.871c6.004,0 10.873,-4.867 10.873,-10.871c0,-6.007 -4.869,-10.874 -10.873,-10.874z" fill="#FFFFFF"/>
   <circle id="svg_102" r="5.285" cy="36.17" cx="47.43" fill="#FFFFFF"/>
  </g>
 </g>
</svg>