<svg width="67" height="67" xmlns="http://www.w3.org/2000/svg">
 <g>
  <title>LastFM</title>
  <rect id="svg_64" height="66.991" width="66.99" fill="#D70057" y="0.005" x="0.005"/>
  <g id="svg_65">
   <path id="svg_66" d="m32.399,39.424c0.86,0.669 1.643,1.296 2.446,1.894c0.295,0.222 0.308,0.377 0.076,0.671c-1.75,2.258 -3.929,3.873 -6.608,4.744c-1.97,0.641 -4.007,0.807 -6.017,0.439c-4.153,-0.757 -7.353,-2.939 -9.354,-6.898c-1.357,-2.688 -1.746,-5.536 -1.308,-8.442c0.692,-4.604 3.103,-8.022 7.234,-10.04c2.487,-1.216 5.156,-1.453 7.8,-1.001c4.238,0.724 7.379,3.241 9.364,7.127c1.339,2.619 2.404,5.387 3.587,8.089c0.709,1.62 1.323,3.29 2.127,4.855c1.051,2.04 3.297,3.222 5.724,2.763c1.449,-0.272 2.702,-0.782 3.472,-2.139c1.128,-1.994 0.354,-4.535 -1.712,-5.419c-1.197,-0.51 -2.478,-0.81 -3.707,-1.249c-2.186,-0.783 -4.089,-1.971 -5.252,-4.139c-0.648,-1.21 -0.864,-2.515 -0.773,-3.896c0.088,-1.331 0.376,-2.58 1.173,-3.656c1.103,-1.495 2.597,-2.269 4.388,-2.421c1.166,-0.099 2.327,-0.159 3.482,0.209c1.927,0.613 3.229,1.932 4.124,3.731c0.049,0.102 -0.064,0.396 -0.179,0.464c-0.83,0.476 -1.675,0.931 -2.534,1.351c-0.096,0.047 -0.381,-0.119 -0.465,-0.26c-0.426,-0.708 -0.918,-1.319 -1.679,-1.683c-1.172,-0.554 -3.147,-0.311 -4.038,0.505c-0.786,0.722 -0.798,1.68 -0.734,2.619c0.137,1.985 1.559,2.865 3.109,3.507c1.185,0.49 2.456,0.757 3.657,1.21c2.411,0.906 4.193,2.479 4.898,5.141c1.101,4.167 -1.166,8.01 -4.879,9.267c-1.684,0.57 -3.404,0.752 -5.128,0.408c-2.508,-0.497 -4.532,-1.863 -5.787,-4.172c-0.914,-1.687 -1.59,-3.511 -2.375,-5.271c-1.25,-2.801 -2.401,-5.655 -3.784,-8.382c-1.144,-2.253 -2.993,-3.843 -5.375,-4.647c-2.042,-0.688 -4.09,-0.645 -6.139,0.073c-2.652,0.928 -4.488,2.747 -5.535,5.389c-0.568,1.43 -0.709,2.951 -0.636,4.505c0.096,2.042 0.748,3.852 1.946,5.455c1.221,1.635 2.834,2.683 4.758,3.197c4.15,1.113 7.545,-0.183 10.291,-3.496c0.098,-0.119 0.2,-0.236 0.342,-0.402z" fill="#FFFFFF"/>
  </g>
 </g>
</svg>