<svg width="67" height="67" xmlns="http://www.w3.org/2000/svg">
 <g>
  <title>Rdio</title>
  <rect id="svg_85" height="66.991" width="66.991" fill="#42BDF2" y="0.005" x="-0.139"/>
  <path id="svg_86" d="m36.994,16.09v11.416c0,0 -7.562,-1.809 -11.938,3.806c-4.375,5.613 0.942,14.566 9.306,12.082c8.584,-2.548 7.123,-9.324 7.123,-10.37c0,-1.046 0,-15.41 0,-15.41s8.3,7.077 14.369,7.23c4.409,0.111 4.844,0.989 4.023,3.139c-0.917,2.407 -3.735,5.041 -6.779,5.041c0,0 1.949,12.844 -8.229,19.121c-10.175,6.277 -23.566,3.518 -28.893,-4.09c-5.327,-7.613 -5.58,-20.072 1.46,-26.351c7.038,-6.28 13.57,-6.85 19.558,-5.614z" fill="#FFFFFF"/>
 </g>
</svg>