<?xml version="1.0" encoding="utf-8"?>
<!-- Generator: Adobe Illustrator 16.0.4, SVG Export Plug-In . SVG Version: 6.00 Build 0)  -->
<!DOCTYPE svg PUBLIC "-//W3C//DTD SVG 1.1//EN" "http://www.w3.org/Graphics/SVG/1.1/DTD/svg11.dtd">
<svg version="1.1" id="Layer_1" xmlns="http://www.w3.org/2000/svg" xmlns:xlink="http://www.w3.org/1999/xlink" x="0px" y="0px"
	 width="67px" height="67px" viewBox="0 0 67 67" enable-background="new 0 0 67 67" xml:space="preserve">
<rect x="0.042" y="0.005" fill="#F19220" width="66.991" height="66.991"/>
<g>
	<path fill="#FFFFFF" d="M48.283,33.544c0,0,0.009-0.11,0.007-0.304c-0.002,0-0.007,0.001-0.007,0.001V33.544z"/>
	<path fill="#FFFFFF" d="M10.964,38.694c0,0.955,0.146,1.758,0.379,2.436c0-1.593,0-3.187,0-4.777
		C11.106,36.997,10.964,37.767,10.964,38.694z"/>
	<path fill="#FFFFFF" d="M12.364,35.19c0,2.437,0,4.753,0,7.195c0.31,0.557,0.67,0.987,1.03,1.311c0-3.332,0-6.348,0-9.659
		C13.02,34.325,12.664,34.7,12.364,35.19z"/>
	<path fill="#FFFFFF" d="M14.424,33.449c0,3.521,0,7.387,0,10.954c0.414,0.205,0.707,0.271,0.707,0.271s0.114,0,0.322,0
		c0-3.947,0-7.561,0-11.517C15.153,33.205,14.795,33.298,14.424,33.449z"/>
	<path fill="#FFFFFF" d="M17.513,33.083c-0.341-0.007-0.695,0-1.03,0.003c0,3.749,0,7.864,0,11.587c0.301,0,0.644,0,1.03,0
		C17.513,40.702,17.513,37.068,17.513,33.083z"/>
	<path fill="#FFFFFF" d="M18.762,33.242c-0.045-0.018-0.102-0.029-0.152-0.042c0,3.866,0,7.537,0,11.474c0.38,0,0.79,0,1.212,0
		c0-4.901,0-9.805,0-14.706C18.578,31.549,18.762,33.242,18.762,33.242z"/>
	<path fill="#FFFFFF" d="M20.428,29.317c0,4.98,0,10.387,0,15.356c0.389,0,0.796,0,1.212,0c0-5.56,0-10.648,0-16.207
		C21.162,28.726,20.761,29.013,20.428,29.317z"/>
	<path fill="#FFFFFF" d="M22.244,28.169c0,5.391,0,11.157,0,16.504c0.39,0,0.804,0,1.211,0c0-5.639,0-11.277,0-16.916
		C23.06,27.859,22.656,27.992,22.244,28.169z"/>
	<path fill="#FFFFFF" d="M24.061,27.623c0,5.825,0,11.238,0,17.05c0.395,0,0.803,0,1.212,0c0-5.563,0-11.581,0-17.157
		C24.882,27.523,24.48,27.549,24.061,27.623z"/>
	<path fill="#FFFFFF" d="M25.877,27.517c0,5.576,0,11.593,0,17.156c0.397,0,0.805,0,1.212,0c0-5.502,0-11.449,0-16.976
		C26.71,27.613,26.312,27.544,25.877,27.517z"/>
	<path fill="#FFFFFF" d="M56.007,35.89c-2.397-4.347-7.613-2.684-7.716-2.65c0.002,0.194-0.006,0.304-0.006,0.304v-0.303
		c0,0,0.005-0.001,0.006-0.001c-0.017-1.339-0.493-6.75-6.97-8.932c-7.419-2.498-11.582,4.694-11.582,4.694
		c-0.171-0.272-0.922-0.801-2.045-1.152c0,5.709,0,11.058,0,16.823c10.196,0,22.846,0,24.225,0
		C54.267,44.673,58.43,40.281,56.007,35.89z"/>
</g>
</svg>
