<svg width="67" height="67" xmlns="http://www.w3.org/2000/svg">
 <g>
  <title>iCloud</title>
  <rect id="svg_63" height="66.991" width="66.99" fill="#C4C4C4" y="0.005" x="0.005"/>
  <path id="svg_64" d="m47.598,48.289l-29.192,-0.031c-2.571,-0.475 -7.433,-3.15 -7.433,-9.877c0,-5.634 3.048,-8.083 5.472,-8.877c0.706,-2.4 2.761,-5.445 7.279,-5.445c0.918,0 1.905,0.131 2.952,0.391c1.37,-2.11 4.489,-5.738 9.735,-5.738c1.576,0 3.225,0.342 4.897,1.014c6.817,2.736 8.376,7.519 8.204,10.843c2.947,0.862 6.516,3.293 6.516,8.622c0,7.197 -5.513,9.098 -8.43,9.098zm-28.646,-3.783h28.646c0.775,0 4.647,-0.256 4.647,-5.315c0,-4.761 -4.514,-5.188 -5.027,-5.223l-2.448,-0.157l0.776,-2.328c0.162,-0.527 1.442,-5.401 -5.645,-8.246c-1.226,-0.492 -2.398,-0.741 -3.49,-0.741c-4.769,0 -7.019,4.775 -7.113,4.979l-0.718,1.56l-1.625,-0.555c-1.218,-0.422 -2.304,-0.637 -3.231,-0.637c-3.254,0 -3.729,2.862 -3.791,3.437l-0.17,1.575l-1.581,0.126c-0.549,0.056 -3.426,0.59 -3.426,5.401c0,4.811 3.437,5.933 4.196,6.124z" fill="#282828"/>
 </g>
</svg>