<?xml version="1.0" encoding="utf-8"?>
<!-- Generator: Adobe Illustrator 16.0.4, SVG Export Plug-In . SVG Version: 6.00 Build 0)  -->
<!DOCTYPE svg PUBLIC "-//W3C//DTD SVG 1.1//EN" "http://www.w3.org/Graphics/SVG/1.1/DTD/svg11.dtd">
<svg version="1.1" id="Layer_1" xmlns="http://www.w3.org/2000/svg" xmlns:xlink="http://www.w3.org/1999/xlink" x="0px" y="0px"
	 width="67px" height="67px" viewBox="0 0 67 67" enable-background="new 0 0 67 67" xml:space="preserve">
<rect x="0.042" y="0.005" fill="#F13033" width="66.991" height="66.991"/>
<path fill="#F13033" d="M66.515,5.636"/>
<path fill="#FFFFFF" d="M8.627,34.1h8.361v7.151c0,0-0.098,2.613,2.764,2.613c3.157,0,2.764-2.517,2.764-2.517V24.97
	c0,0,0.047-11.198,11.346-11.198c11.297,0,11.149,10.459,11.149,10.459v3.996l-5.132,1.677l-3.505-1.627v-3.453
	c0,0,0.102-2.37-2.515-2.37c-2.616,0-2.714,1.924-2.714,2.37c0,0.445,0,17.069,0,17.069s-0.395,10.606-11.1,10.606
	c-10.706,0-11.42-9.964-11.42-11.196C8.627,40.065,8.627,34.1,8.627,34.1z"/>
<path fill="#FFFFFF" d="M36.376,34.197l3.504,1.628l5.132-1.679v7.401c0,0-0.05,2.417,2.663,2.417c2.712,0,2.811-2.417,2.811-2.417
	v-7.401h8.536v8.389c0,0,0.445,9.964-11.1,9.964c-11.988,0-11.546-10.459-11.546-10.459V34.197L36.376,34.197z"/>
</svg>
