<svg width="67" height="67" xmlns="http://www.w3.org/2000/svg">
 <g>
  <title>Git</title>
  <rect id="svg_44" height="66.991" width="66.991" fill="#ED2F31" x="0.002"/>
  <path id="svg_45" d="m30.828,11.911l-3.859,3.682l5.345,5.345c0,0 1.723,-0.831 3.653,0.683c1.781,1.396 0.949,3.771 0.949,3.771l5.227,5.019c0,0 2.494,-0.772 3.979,1.157c1.485,1.93 0.654,3.741 -0.208,4.633c-0.862,0.891 -3.415,1.693 -5.108,-0.03c-1.693,-1.723 -0.802,-3.801 -0.802,-3.801l-4.868,-4.662v12.413c0,0 1.989,0.83 1.989,3.178s-2.168,3.415 -3.8,3.415c-1.634,0 -3.415,-1.426 -3.415,-3.651c0,-2.227 2.256,-3.089 2.256,-3.089v-12.474c0,0 -3.118,-1.365 -1.989,-4.632l-5.377,-5.168l-13.6,13.125c0,0 -2.955,2.213 0.118,5.286c3.073,3.073 19.895,19.212 19.895,19.212s2.168,2.287 4.662,-0.147c2.494,-2.435 20.133,-19.421 20.133,-19.421s2.257,-2.316 0.209,-4.276c-2.049,-1.959 -20.816,-20.073 -20.816,-20.073s-1.841,-1.901 -4.573,0.505z" fill="#FFFFFF"/>
 </g>
</svg>