<svg width="67" height="67" xmlns="http://www.w3.org/2000/svg">
 <g>
  <title>Skype</title>
  <path fill="#3E9DD7" d="m35.84,46.38c-4.82,0.256 -7.075,-0.832 -9.142,-2.81c-2.308,-2.209 -1.381,-4.728 0.499,-4.854c1.879,-0.128 3.007,2.171 4.01,2.812c1.002,0.639 4.812,2.091 6.826,-0.258c2.191,-2.554 -1.458,-3.875 -4.134,-4.275c-3.819,-0.576 -8.642,-2.684 -8.267,-6.836c0.375,-4.149 3.457,-6.277 6.7,-6.577c4.134,-0.383 6.825,0.638 8.954,2.491c2.461,2.14 1.129,4.532 -0.438,4.725c-1.562,0.191 -3.315,-3.52 -6.761,-3.576c-3.551,-0.057 -5.95,3.768 -1.567,4.854c4.384,1.086 9.082,1.532 10.772,5.618c1.692,4.088 -2.629,8.429 -7.452,8.686zm13.592,-9.724c0.09,-0.68 0.143,-1.372 0.143,-2.075c0,-8.446 -6.784,-15.294 -15.152,-15.294c-0.832,0 -1.647,0.07 -2.441,0.202c-1.424,-0.941 -3.118,-1.489 -4.94,-1.489c-4.996,0 -9.042,4.107 -9.042,9.175c0,1.844 0.535,3.557 1.456,4.995c-0.124,0.786 -0.188,1.591 -0.188,2.41c0,8.447 6.781,15.294 15.151,15.294c0.944,0 1.865,-0.093 2.759,-0.257c1.388,0.874 3.026,1.383 4.78,1.383c4.995,0 9.042,-4.107 9.042,-9.175c0,-1.916 -0.577,-3.697 -1.568,-5.169zm17.568,30.344l-67,0l0,-67l67,0l0,67z" id="svg_1"/>
 </g>
</svg>