<?xml version="1.0" encoding="utf-8"?>
<!-- Generator: Adobe Illustrator 16.0.4, SVG Export Plug-In . SVG Version: 6.00 Build 0)  -->
<!DOCTYPE svg PUBLIC "-//W3C//DTD SVG 1.1//EN" "http://www.w3.org/Graphics/SVG/1.1/DTD/svg11.dtd">
<svg version="1.1" id="Layer_1" xmlns="http://www.w3.org/2000/svg" xmlns:xlink="http://www.w3.org/1999/xlink" x="0px" y="0px"
	 width="67px" height="67px" viewBox="0 0 67 67" enable-background="new 0 0 67 67" xml:space="preserve">
<rect x="0.042" y="0.005" fill="#E6932F" width="66.991" height="66.991"/>
<path fill="#E6932F" d="M66.515,5.636"/>
<g>
	<polygon fill="#FFFFFF" points="45.801,56.862 16.451,56.862 16.451,39.318 20.132,39.318 20.132,53.317 42.12,53.317 
		42.12,39.318 45.801,39.318 	"/>
	<rect x="22.708" y="46.939" fill="#FFFFFF" width="16.928" height="3.543"/>
	<polygon fill="#FFFFFF" points="22.87,40.568 39.73,42.011 39.408,45.542 22.548,44.1 	"/>
	<polygon fill="#FFFFFF" points="39.922,40.756 23.63,36.329 24.63,32.916 40.921,37.346 	"/>
	<polygon fill="#FFFFFF" points="41.359,36.329 26.691,28.189 28.528,25.118 43.197,33.255 	"/>
	<polygon fill="#FFFFFF" points="44.228,32.547 34.435,19.251 37.436,17.2 47.229,30.497 	"/>
	<polygon fill="#FFFFFF" points="48.065,30.109 45.063,14.064 48.685,13.436 51.689,29.482 	"/>
</g>
</svg>
