<svg width="67" height="67" xmlns="http://www.w3.org/2000/svg">
 <linearGradient gradientTransform="matrix(53.1254 0 0 -53.1254 21455.5625 2603.1523)" y2="0.72193" x2="-6.0151" y1="0.72193" x1="-6.03392" id="SVGID_1_">
  <stop stop-color="#6B9A40" offset="0"/>
  <stop stop-color="#6B9A40" offset="1"/>
 </linearGradient>
 <g>
  <title>Evernote</title>
  <path id="svg_26" d="m67,66.986l-66.942,0.014v-67l66.942,0.044v66.942l0,0z" fill="url(#SVGID_1_)"/>
  <g id="SMqkte_1_">
   <g id="svg_27">
    <g id="svg_28">
     <path id="svg_29" d="m33.698,37.248c-0.374,1.438 -0.818,3.252 -1.312,5.049c-0.284,1.021 -1.01,1.601 -2.066,1.391c-3.935,-0.785 -7.896,-1.496 -11.755,-2.571c-0.915,-0.253 -1.863,-1.718 -2.113,-2.785c-1.007,-4.312 -1.921,-8.663 -2.526,-13.046c-0.445,-3.215 1.081,-4.638 4.364,-4.734c1.287,-0.038 2.578,-0.018 3.866,-0.05c1.387,-0.034 1.884,-0.517 1.914,-1.931c0.032,-1.472 -0.03,-2.946 0,-4.418c0.038,-2.019 0.969,-3.176 2.94,-3.588c2.428,-0.507 4.884,-0.447 7.206,0.371c0.934,0.328 1.821,1.201 2.378,2.058c0.442,0.685 0.807,0.864 1.561,0.93c3.327,0.291 6.669,0.531 9.961,1.072c2.604,0.428 3.729,1.812 3.875,4.391c0.344,6.007 0.908,12.027 0.771,18.026c-0.124,5.426 -0.853,10.867 -3.22,15.918c-0.929,1.982 -2.31,3.45 -4.536,3.481c-2.872,0.039 -5.764,-0.14 -8.623,-0.438c-1.678,-0.175 -2.708,-1.465 -2.878,-3.088c-0.182,-1.711 -0.189,-3.475 0.037,-5.175c0.227,-1.739 1.553,-2.833 3.303,-2.997c1.224,-0.114 2.468,-0.021 3.756,-0.021c0,1.113 0,2.135 0,3.233c-0.54,0.03 -0.986,0.064 -1.437,0.081c-1.065,0.041 -1.888,0.297 -1.865,1.637c0.023,1.444 0.343,1.889 1.833,1.95c1.329,0.057 2.668,0.058 3.994,-0.04c1.204,-0.086 1.967,-0.787 1.943,-2.061c-0.029,-1.552 -0.037,-3.119 -0.259,-4.653c-0.267,-1.876 -1.361,-2.724 -3.247,-2.924c-1.411,-0.15 -2.825,-0.333 -4.22,-0.607c-2.497,-0.486 -3.403,-1.725 -3.645,-4.461zm7.616,-5.052c1.564,0.192 3.033,0.373 4.504,0.553c0.204,-1.724 -0.44,-2.752 -1.901,-2.945c-1.507,-0.197 -2.355,0.584 -2.603,2.392z" fill="#FFFFFF"/>
    </g>
   </g>
  </g>
  <path id="svg_30" d="m15.672,19.388c2.106,-2.203 4.544,-4.749 7.033,-7.352c0,2.136 -0.037,4.117 0.017,6.094c0.025,0.944 -0.265,1.308 -1.257,1.277c-2.083,-0.066 -4.171,-0.019 -5.793,-0.019z" fill="#FFFFFF"/>
 </g>
</svg>