<svg width="67" height="67" xmlns="http://www.w3.org/2000/svg">
 <g>
  <title>Vimeo</title>
  <path fill="#63B4E4" d="m16.557,29.106c0,0 2.816,-2.221 3.755,-1.11c0.939,1.111 4.521,14.509 5.718,16.98c1.044,2.168 3.924,5.032 7.081,2.985c3.157,-2.046 13.653,-11.007 15.53,-21.588c1.879,-10.579 -12.629,-8.363 -14.166,0.854c3.842,-2.306 5.892,0.937 3.926,4.608c-1.961,3.668 -3.754,6.061 -4.692,6.061c-0.937,0 -1.658,-2.455 -2.731,-6.745c-1.109,-4.436 -1.103,-12.424 -5.716,-11.519c-4.351,0.854 -10.068,7.682 -10.068,7.682l1.363,1.792zm-16.557,-29.106l67,0l0,67l-67,0l0,-67z" id="svg_1"/>
 </g>
</svg>