<svg width="67" height="67" xmlns="http://www.w3.org/2000/svg">
 <linearGradient gradientTransform="matrix(20.8333 0 0 -20.8333 392.334 5685.6719)" y2="5.5949" x2="-0.47696" y1="5.63748" x1="-0.47696" id="SVGID_1_">
  <stop stop-color="#FFFFFF" offset="0"/>
  <stop stop-color="#E8E8E8" offset="1"/>
 </linearGradient>
 <g>
  <title>Mixi</title>
  <rect id="svg_73" height="66.991" width="66.991" fill="#CCAC5D" y="0.005" x="0.005"/>
  <path id="svg_74" d="m35.304,50.019c-7.698,0.866 -13.684,-1.217 -18.149,-4.861c-4.049,-3.305 -10.603,-14.381 -1.202,-25.64c10.451,-12.518 39.357,-8.417 39.901,9.948c0.547,18.363 -20.551,24.598 -20.551,24.598v-4.045l0.001,0zm-15.2,-9.965h3.403v-10.439c0,-0.537 0.079,-1.072 0.276,-1.537c0.554,-1.574 2.138,-3.146 4.313,-3.146c2.651,0 3.996,2.002 3.996,4.753v10.367h3.404v-10.69c0,-0.571 0.118,-1.143 0.276,-1.57c0.592,-1.539 2.136,-2.861 4.114,-2.861c2.812,0 4.155,2.003 4.155,5.326v9.796h3.404v-10.189c0,-6.006 -3.763,-7.509 -6.292,-7.509c-1.822,0 -3.088,0.429 -4.232,1.217c-0.792,0.535 -1.546,1.286 -2.138,2.252h-0.08c-0.831,-2.036 -2.808,-3.469 -5.422,-3.469c-3.166,0 -4.947,1.539 -6.014,3.183h-0.117l-0.158,-2.788h-3.046c0.118,1.43 0.158,2.895 0.158,4.683l0,12.621l0,0z" fill="url(#SVGID_1_)"/>
 </g>
</svg>